<svg width="15" height="15" viewBox="0 0 15 15" fill="none" xmlns="http://www.w3.org/2000/svg">
<g clip-path="url(#clip0_416_25)">
<path d="M8.46703 9.5538C8.2181 9.41706 7.89737 9.47638 7.71857 9.70373L7.71831 9.70406L11.6758 11.483L11.7078 11.3295M8.46703 9.5538L8.39482 9.68527L8.46689 9.55372L8.46703 9.5538ZM8.46703 9.5538L11.7078 11.3295M11.7078 11.3295L13.5883 2.31473M11.7078 11.3295L11.8453 11.4048L13.5883 2.31473M13.5883 2.31473L2.87671 6.33381M5.09594 8.37772L6.76786 7.44265L6.11072 8.00286L6.11059 8.00298C5.98567 8.10971 5.91255 8.26378 5.91255 8.4279V12.2033C5.91255 12.4783 6.09752 12.6704 6.31207 12.739C6.52604 12.8074 6.78887 12.7599 6.95691 12.5453L6.95699 12.5452L8.33732 10.7797L11.8327 12.6947C11.8328 12.6948 11.8329 12.6948 11.833 12.6949C12.1692 12.8805 12.6074 12.698 12.688 12.3156L12.6881 12.3153L14.9381 1.52834L14.9382 1.52819C15.0319 1.07656 14.5696 0.731044 14.1583 0.889532C14.1581 0.889631 14.1578 0.88973 14.1576 0.889829L1.22112 5.7434L1.22103 5.74343C0.751915 5.91977 0.718287 6.55921 1.17341 6.777L4.54808 8.39499L4.54861 8.39524C4.72219 8.47763 4.92765 8.47237 5.09571 8.37785C5.09578 8.3778 5.09586 8.37776 5.09594 8.37772Z" fill="#55589C" stroke="#55589C" stroke-width="0.3"/>
</g>
<defs>
<clipPath id="clip0_416_25">
<rect width="15" height="15" fill="white"/>
</clipPath>
</defs>
</svg>
