<svg width="15" height="15" viewBox="0 0 15 15" fill="none" xmlns="http://www.w3.org/2000/svg">
<path d="M14.3786 9.44641C13.932 8.94421 13.4065 8.51561 12.9092 8.06048C12.4605 7.65024 12.4323 7.41225 12.7929 6.93876C13.1865 6.42199 13.6098 5.92503 14.007 5.41059C14.3777 4.92981 14.7567 4.45035 14.9518 3.8747C15.0755 3.50847 14.9661 3.3467 14.5655 3.28258C14.4965 3.27136 14.4251 3.27077 14.3549 3.27077L11.9782 3.26815C11.6855 3.26407 11.5236 3.38372 11.4201 3.62695C11.2804 3.95573 11.1363 4.28421 10.9698 4.60147C10.592 5.32082 10.1701 6.01612 9.57866 6.60488C9.44823 6.73473 9.30398 6.89883 9.08604 6.83121C8.81338 6.73794 8.73301 6.31677 8.73752 6.17439L8.73518 3.60261C8.68233 3.23522 8.59544 3.07141 8.20634 3L5.73749 3.00044C5.40793 3.00044 5.24269 3.11979 5.06672 3.31304C4.96521 3.42467 4.93459 3.4971 5.1432 3.53412C5.55297 3.60698 5.78381 3.85561 5.84506 4.24078C5.9433 4.85622 5.93646 5.47413 5.87988 6.09205C5.86325 6.27246 5.83014 6.45245 5.75381 6.62092C5.63442 6.88571 5.44167 6.93964 5.18844 6.77671C4.95915 6.62922 4.7981 6.42111 4.64048 6.21213C4.04837 5.42779 3.57596 4.58195 3.19075 3.69311C3.07945 3.43633 2.88747 3.28068 2.59724 3.27646C1.88419 3.26582 1.17099 3.26407 0.457941 3.27704C0.0288987 3.28462 -0.0990367 3.4799 0.0756891 3.84453C0.852317 5.46408 1.71677 7.03859 2.84519 8.47291C3.42455 9.20901 4.08972 9.85884 4.94905 10.3194C5.92294 10.8414 6.97129 10.9985 8.07546 10.9501C8.59248 10.9274 8.74778 10.8013 8.77172 10.3182C8.78788 9.98767 8.82783 9.65904 9.00178 9.36203C9.17247 9.07056 9.43098 9.01504 9.72898 9.19633C9.87805 9.28713 10.0037 9.40269 10.1223 9.52453C10.4133 9.82299 10.6939 10.1305 10.9959 10.4189C11.3747 10.7803 11.8235 10.9938 12.3878 10.9502L14.5722 10.9507C14.9241 10.9291 15.1066 10.5246 14.9045 10.1563C14.7626 9.89834 14.5764 9.66866 14.3786 9.44641Z" fill="#55589C"/>
</svg>
