<svg width="28" height="28" viewBox="0 0 28 28" fill="none" xmlns="http://www.w3.org/2000/svg">
<path d="M14 0C6.27955 0 0 6.27955 0 14C0 21.7204 6.27955 28 14 28C21.7204 28 28 21.7204 28 14C28 6.27955 21.7204 0 14 0ZM20.5173 12.6043L14.4304 18.6912C14.3115 18.8101 14.1569 18.8696 14 18.8696C13.8431 18.8696 13.6885 18.8101 13.5696 18.6912L7.48268 12.6043C7.2449 12.3665 7.2449 11.9813 7.48268 11.7435C7.72045 11.5058 8.10564 11.5058 8.34341 11.7435L14 17.4001L19.6566 11.7435C19.8944 11.5058 20.2796 11.5058 20.5173 11.7435C20.7551 11.9813 20.7551 12.3665 20.5173 12.6043Z" fill="#55589C"/>
</svg>
