<svg width="321" height="600" viewBox="0 0 321 600" fill="none" xmlns="http://www.w3.org/2000/svg">
<path fill-rule="evenodd" clip-rule="evenodd" d="M11.5593 262.329C4.49814 264.852 -0.156453 271.61 0.00400768 279.107L0.442183 299.579C0.602644 307.076 5.54216 313.629 12.7048 315.848L53.6095 328.517C53.642 328.527 53.6748 328.502 53.6741 328.468C53.6728 328.407 53.7628 328.398 53.7736 328.458C54.8119 334.24 56.0399 340 57.4585 345.731C60.2551 357.029 63.7613 368.084 67.9388 378.838C70.2555 384.802 69.4189 391.578 65.4645 396.607L46.4097 420.841C41.7749 426.735 41.4318 434.934 45.5581 441.196L56.8257 458.293C60.952 464.554 68.6216 467.472 75.8661 465.538L102.717 458.367C109.241 456.625 116.148 458.844 120.706 463.828C131.155 475.256 142.617 485.829 154.998 495.406C155.31 495.648 155.624 495.889 155.937 496.129C155.996 496.174 155.94 496.266 155.873 496.235C155.835 496.217 155.79 496.243 155.785 496.285L151.017 538.824C150.181 546.276 154.208 553.427 161.013 556.576L179.596 565.175C186.401 568.324 194.458 566.765 199.597 561.305L216.833 542.992C221.664 537.859 229.095 536.194 235.786 538.411C249.056 542.808 262.665 546.182 276.495 548.492C282.969 549.573 288.471 553.941 290.679 560.122L300.797 588.44C303.32 595.502 310.078 600.156 317.575 599.996L338.046 599.558C345.542 599.397 352.095 594.458 354.314 587.295L363.174 558.688C365.12 552.405 370.449 547.8 376.887 546.454C389.755 543.763 402.397 540.145 414.713 535.636C420.613 533.475 427.244 534.37 432.175 538.263L456.863 557.757C462.748 562.404 470.946 562.764 477.215 558.65L494.335 547.417C500.604 543.303 503.538 535.639 501.618 528.39L492.11 492.494C492.017 492.143 492.139 491.77 492.421 491.541C504.4 481.83 515.464 471.171 525.529 459.704C529.791 454.847 536.27 452.464 542.607 453.724L574.211 460.004C581.566 461.466 589.03 458.057 592.742 451.542L602.879 433.751C606.592 427.236 605.719 419.076 600.712 413.494L580.342 390.783C575.895 385.825 574.71 378.782 576.966 372.516C580.817 361.825 584.009 350.858 586.507 339.672C587.553 334.992 588.472 330.296 589.265 325.587C590.355 319.124 594.719 313.634 600.891 311.429L630.441 300.871C637.502 298.348 642.156 291.589 641.996 284.093L641.558 263.621C641.397 256.124 636.458 249.571 629.295 247.352L599.44 238.105C593.166 236.162 588.565 230.845 587.212 224.417C584.386 210.997 580.54 197.768 575.687 184.849C573.406 178.777 574.376 171.913 578.51 166.915L598.912 142.243C603.691 136.465 604.236 128.277 600.265 121.916L589.423 104.545C585.452 98.1845 577.857 95.0781 570.567 96.8335L540.699 104.026C534.248 105.579 527.511 103.301 523.067 98.3738C516.044 90.5888 508.576 83.2156 500.7 76.292C495.844 72.0236 493.466 65.5377 494.735 59.1982L500.225 31.7641C501.684 24.4681 498.35 17.0501 491.924 13.2996L472.321 1.85868C467.195 -1.13308 460.722 -0.464376 456.316 3.51213C453.452 6.09703 451.817 9.7747 451.817 13.633L451.817 42.047L451.817 50.5782L451.817 108.478C451.817 113.777 454.258 118.754 458.263 122.223C479.661 140.754 497.223 163.561 509.701 189.392C530.216 231.861 535.784 280.014 525.503 326.045C515.221 372.075 489.692 413.282 453.056 442.984C416.421 472.686 370.826 489.141 323.666 489.681C276.506 490.222 230.547 474.815 193.24 445.959C155.934 417.104 129.468 376.492 118.135 330.71C106.802 284.927 111.266 236.659 130.803 193.731C144.212 164.269 164.181 138.509 188.956 118.288C193.207 114.819 195.823 109.688 195.823 104.2L195.823 39.3238L195.823 20.2375C195.823 16.3791 194.188 12.7016 191.324 10.1166C186.918 6.14013 180.445 5.47149 175.319 8.46325L155.716 19.9042C149.29 23.6547 145.955 31.0726 147.415 38.3686L151.026 56.4123C152.313 62.8462 149.845 69.4216 144.854 73.6808C133.213 83.6152 122.435 94.5122 112.635 106.252C108.444 111.273 101.923 113.813 95.4927 112.62L63.9724 106.771C56.5999 105.402 49.1792 108.906 45.5499 115.467L35.6395 133.386C32.0102 139.947 32.9868 148.095 38.064 153.613L59.5821 177.001C64.0324 181.837 65.336 188.753 63.27 194.992C58.6748 208.87 55.2206 223.056 52.9205 237.408C51.875 243.931 47.494 249.489 41.273 251.712L11.5593 262.329Z" fill="#FAFAFA"/>
</svg>
