<svg width="262" height="368" viewBox="0 0 262 368" fill="none" xmlns="http://www.w3.org/2000/svg">
<path fill-rule="evenodd" clip-rule="evenodd" d="M-8.1369 504.745C-6.11856 510.399 -0.711792 514.125 5.28571 513.997L21.6632 513.646C27.6607 513.518 32.9032 509.563 34.678 503.828L44.8135 471.079C44.8215 471.053 44.8018 471.027 44.7746 471.027C44.7254 471.028 44.7183 470.956 44.7667 470.948C49.3919 470.116 54.0003 469.133 58.5848 467.997C67.6229 465.758 76.4671 462.951 85.0704 459.607C89.8413 457.752 95.262 458.422 99.2855 461.588L118.673 476.843C123.388 480.554 129.948 480.829 134.956 477.525L148.634 468.504C153.643 465.2 155.978 459.06 154.43 453.26L148.694 431.763C147.3 426.539 149.075 421.009 153.062 417.36C162.205 408.994 170.663 399.818 178.325 389.905C178.518 389.655 178.711 389.404 178.903 389.153C178.939 389.106 179.013 389.151 178.988 389.204C178.974 389.235 178.994 389.271 179.028 389.275L213.059 393.093C219.021 393.761 224.741 390.538 227.26 385.089L234.14 370.211C236.659 364.763 235.412 358.313 231.044 354.198L216.394 340.399C212.288 336.531 210.955 330.581 212.729 325.224C216.246 314.6 218.945 303.704 220.794 292.632C221.659 287.449 225.153 283.043 230.097 281.275L252.752 273.175C258.401 271.155 262.125 265.744 261.997 259.742L261.646 243.353C261.518 237.351 257.566 232.104 251.836 230.328L228.95 223.235C223.924 221.677 220.24 217.41 219.163 212.256C217.01 201.953 214.116 191.832 210.509 181.972C208.78 177.248 209.496 171.939 212.611 167.991L228.206 148.225C231.923 143.514 232.211 136.95 228.92 131.931L219.933 118.224C216.642 113.205 210.511 110.856 204.712 112.393L175.996 120.005C175.715 120.08 175.416 119.982 175.233 119.756C167.464 110.166 158.937 101.307 149.763 93.2496C145.878 89.8372 143.971 84.6499 144.979 79.576L150.004 54.2734C151.173 48.3852 148.446 42.4088 143.234 39.4367L129.001 31.3208C123.789 28.3487 117.261 29.0477 112.795 33.0562L94.6261 49.3651C90.66 52.9252 85.0256 53.8741 80.0131 52.0674C71.4603 48.9848 62.6867 46.4292 53.7376 44.4287C49.9938 43.5918 46.2364 42.8559 42.4695 42.2205C37.2995 41.3485 32.9072 37.8539 31.1431 32.913L22.6967 9.25469C20.6783 3.60137 15.2715 -0.125223 9.27403 0.00319592L-7.10347 0.354027C-13.101 0.482507 -18.3435 4.43716 -20.1182 10.1718L-27.5158 34.0744C-29.0704 39.0975 -33.3242 42.7812 -38.4661 43.8648C-49.2023 46.1271 -59.7853 49.2065 -70.1208 53.092C-74.9781 54.9181 -80.4698 54.1412 -84.4684 50.8319L-104.205 34.4969C-108.828 30.671 -115.379 30.2347 -120.468 33.4136L-134.364 42.0945C-139.452 45.2735 -141.938 51.3545 -140.533 57.191L-134.779 81.1039C-133.537 86.2685 -135.36 91.6625 -139.301 95.2208C-145.529 100.843 -151.427 106.823 -156.966 113.128C-160.381 117.016 -165.57 118.919 -170.641 117.904L-192.589 113.509C-198.426 112.34 -204.36 115.01 -207.36 120.155L-216.513 135.849C-218.906 139.953 -218.372 145.135 -215.19 148.663C-213.122 150.956 -210.18 152.265 -207.094 152.265L-184.362 152.265L-177.537 152.265L-131.218 152.265C-126.979 152.265 -122.997 150.311 -120.221 147.104C-105.397 129.973 -87.1515 115.912 -66.4865 105.921C-32.5115 89.4966 6.01148 85.0387 42.8356 93.2704C79.6596 101.502 112.625 121.941 136.387 151.273C160.149 180.604 173.313 217.108 173.745 254.865C174.177 292.623 161.852 329.419 138.768 359.287C115.683 389.156 83.1939 410.345 46.5679 419.418C9.94189 428.492 -28.673 424.918 -63.015 409.276C-86.5847 398.541 -107.193 382.553 -123.369 362.717C-126.145 359.314 -130.25 357.22 -134.64 357.22L-186.541 357.22L-201.81 357.22C-204.897 357.22 -207.839 358.529 -209.907 360.822C-213.088 364.35 -213.623 369.532 -211.229 373.636L-202.077 389.33C-199.076 394.475 -193.142 397.145 -187.305 395.976L-172.87 393.085C-167.723 392.055 -162.463 394.031 -159.055 398.026C-151.108 407.346 -142.39 415.975 -132.998 423.822C-128.982 427.177 -126.95 432.398 -127.904 437.546L-132.584 462.782C-133.678 468.685 -130.876 474.626 -125.626 477.532L-111.292 485.466C-106.042 488.372 -99.5237 487.59 -95.1093 483.525L-76.3996 466.297C-72.5301 462.734 -66.9979 461.69 -62.0062 463.345C-50.9037 467.024 -39.5552 469.789 -28.0738 471.631C-22.8553 472.468 -18.4084 475.975 -16.6302 480.956L-8.1369 504.745Z" fill="#55589C" fill-opacity="0.07"/>
<path d="M-112.316 154.875C-98.7834 139.488 -82.3001 126.856 -63.7524 117.789C-37.0257 104.724 -7.12953 99.6054 22.4041 103.039C51.9378 106.472 79.8747 118.314 102.914 137.164C125.541 155.677 142.515 180.19 151.915 207.898C152.2 208.736 151.743 209.643 150.904 209.92C150.743 209.973 150.574 210 150.405 210L131.837 210C119.571 210 108.751 202.549 101.893 192.347C95.4905 182.82 87.7014 174.236 78.7361 166.901C61.3554 152.68 40.2802 143.747 18.0005 141.157C-4.27919 138.567 -26.8324 142.428 -46.9945 152.285C-61.9235 159.583 -75.0934 170.108 -85.6719 182.873C-92.5947 191.227 -102.406 197.092 -113.236 197.11L-729 198.103L-136.475 167.297C-127.076 166.808 -118.542 161.955 -112.316 154.875Z" fill="#F3F3F8"/>
</svg>
