<svg width="660" height="934" viewBox="0 0 660 934" fill="none" xmlns="http://www.w3.org/2000/svg">
<path fill-rule="evenodd" clip-rule="evenodd" d="M18.0052 408.359C7.00647 412.286 -0.243668 422.807 0.0062703 434.477L0.688784 466.345C0.938723 478.015 8.63267 488.216 19.7895 491.669L83.504 511.391C83.5546 511.407 83.6056 511.368 83.6045 511.316C83.6024 511.22 83.7427 511.206 83.7596 511.3C85.3768 520.3 87.2896 529.267 89.4992 538.188C93.8554 555.775 99.3167 572.984 105.824 589.724C109.432 599.008 108.129 609.556 101.97 617.385L72.2893 655.109C65.0699 664.285 64.5356 677.048 70.9628 686.795L88.5136 713.41C94.9408 723.156 106.887 727.699 118.171 724.687L159.995 713.525C170.157 710.813 180.917 714.267 188.015 722.026C204.291 739.815 222.144 756.274 241.43 771.182C241.917 771.558 242.404 771.933 242.893 772.308C242.984 772.378 242.898 772.521 242.793 772.473C242.733 772.445 242.664 772.484 242.656 772.55L235.228 838.77C233.927 850.37 240.199 861.501 250.799 866.403L279.744 879.789C290.344 884.691 302.893 882.264 310.898 873.764L337.746 845.258C345.27 837.268 356.846 834.675 367.268 838.126C387.937 844.971 409.136 850.223 430.678 853.819C440.761 855.503 449.332 862.302 452.772 871.923L468.531 916.005C472.461 926.998 482.988 934.244 494.665 933.994L526.551 933.312C538.228 933.062 548.435 925.372 551.891 914.222L565.691 869.691C568.722 859.91 577.023 852.742 587.051 850.646C607.096 846.458 626.786 840.826 645.97 833.806C655.16 830.443 665.489 831.835 673.17 837.897L711.624 868.242C720.791 875.476 733.56 876.035 743.326 869.632L769.992 852.145C779.757 845.741 784.326 833.811 781.336 822.528L766.526 766.65C766.381 766.103 766.572 765.522 767.011 765.166C785.67 750.048 802.904 733.456 818.58 715.606C825.219 708.046 835.311 704.336 845.183 706.297L894.41 716.074C905.865 718.349 917.493 713.043 923.275 702.901L939.065 675.206C944.847 665.064 943.487 652.362 935.688 643.672L903.959 608.318C897.033 600.601 895.187 589.637 898.701 579.884C904.699 563.242 909.671 546.17 913.563 528.756C915.191 521.471 916.623 514.16 917.859 506.83C919.555 496.77 926.354 488.224 935.967 484.791L981.995 468.356C992.993 464.428 1000.24 453.908 999.994 442.238L999.311 410.37C999.061 398.699 991.367 388.498 980.211 385.045L933.707 370.651C923.935 367.626 916.768 359.348 914.66 349.343C910.259 328.452 904.268 307.86 896.708 287.748C893.156 278.297 894.667 267.611 901.105 259.83L932.885 221.425C940.329 212.43 941.178 199.684 934.993 189.782L918.104 162.743C911.919 152.841 900.089 148.005 888.733 150.738L842.21 161.934C832.163 164.352 821.668 160.805 814.746 153.135C803.807 141.017 792.174 129.539 779.906 118.761C772.343 112.117 768.639 102.021 770.615 92.152L779.166 49.4462C781.44 38.0888 776.246 26.5415 766.236 20.7032L735.702 2.89344C727.718 -1.76366 717.636 -0.722831 710.773 5.46723C706.311 9.49116 703.765 15.2161 703.765 21.2222L703.765 65.4533L703.765 78.7336L703.765 168.864C703.765 177.113 707.567 184.861 713.806 190.261C747.135 219.107 774.491 254.61 793.927 294.82C825.882 360.93 834.555 435.889 818.54 507.543C802.525 579.196 762.761 643.342 705.695 689.578C648.63 735.815 577.61 761.43 504.153 762.271C430.695 763.112 359.107 739.128 300.997 694.21C242.888 649.292 201.664 586.073 184.011 514.805C166.358 443.537 173.311 368.399 203.743 301.575C224.629 255.712 255.733 215.612 294.324 184.136C300.946 178.734 305.02 170.748 305.02 162.205L304.5 87.8153L302 87.8153C296.5 87.8153 297 87.8153 290.5 87.8153C283.5 87.8153 291.354 87.8153 283.5 87.8153L267.5 87.8153C258.5 87.8153 263 87.8153 252.5 87.8153L235.243 87.8153C237.248 97.8306 233.404 108.066 225.63 114.697C207.497 130.161 190.71 147.124 175.444 165.399C168.916 173.215 158.759 177.169 148.743 175.311L99.6455 166.206C88.1619 164.076 76.6031 169.53 70.9501 179.744L55.5132 207.637C49.8602 217.851 51.3814 230.535 59.2897 239.125L92.8071 275.531C99.739 283.06 101.77 293.825 98.5515 303.538C91.3938 325.142 86.0134 347.224 82.4306 369.565C80.8022 379.719 73.9782 388.372 64.2881 391.832L18.0052 408.359Z" fill="#55589C" fill-opacity="0.07"/>
<path d="M722.931 653.614C697.386 682.537 666.271 706.279 631.26 723.322C580.81 747.88 524.377 757.501 468.629 751.048C412.88 744.594 360.146 722.337 316.656 686.904C273.945 652.107 241.904 606.032 224.16 553.952C223.623 552.376 224.485 550.671 226.068 550.151C226.373 550.051 226.691 550 227.011 550H262.06C285.215 550 305.639 564.005 318.583 583.182C330.669 601.087 345.372 617.222 362.295 631.01C395.103 657.74 434.885 674.531 476.941 679.399C518.997 684.267 561.569 677.009 599.628 658.483C627.808 644.766 652.668 624.983 672.636 600.988C685.704 585.286 704.224 574.262 724.666 574.229L1887 572.362L768.533 630.266C750.792 631.184 734.683 640.307 722.931 653.614Z" fill="#F3F3F8"/>
</svg>
