<svg width="124" height="124" viewBox="0 0 124 124" fill="none" xmlns="http://www.w3.org/2000/svg">
<g clip-path="url(#clip0_203_82)">
<path d="M62.0005 0C27.8206 0 0.000516705 27.8201 0.000516705 62C-0.00916588 62.6846 0.117321 63.3644 0.372625 63.9997C0.62793 64.6351 1.00696 65.2133 1.48769 65.7009C1.96842 66.1885 2.54126 66.5756 3.17292 66.8399C3.80459 67.1042 4.48247 67.2402 5.16718 67.2402C5.8519 67.2402 6.52978 67.1042 7.16144 66.8399C7.79311 66.5756 8.36595 66.1885 8.84668 65.7009C9.32741 65.2133 9.70644 64.6351 9.96174 63.9997C10.217 63.3644 10.3435 62.6846 10.3339 62C10.3339 33.4049 33.4054 10.3333 62.0005 10.3333C74.9791 10.3333 86.7513 15.1436 95.816 23.0179L82.6672 36.1667H113.667V5.16667L103.132 15.7018C92.1764 5.96943 77.7788 0 62.0005 0ZM118.834 56.8333C117.464 56.8333 116.149 57.3777 115.18 58.3466C114.212 59.3156 113.667 60.6297 113.667 62C113.667 63.3703 114.212 64.6844 115.18 65.6534C116.149 66.6223 117.464 67.1667 118.834 67.1667C120.204 67.1667 121.518 66.6223 122.487 65.6534C123.456 64.6844 124.001 63.3703 124.001 62C124.001 60.6297 123.456 59.3156 122.487 58.3466C121.518 57.3777 120.204 56.8333 118.834 56.8333ZM9.49629 78.5898C8.126 78.5898 6.81184 79.1342 5.8429 80.1031C4.87396 81.0721 4.32962 82.3862 4.32962 83.7565C4.32962 85.1268 4.87396 86.441 5.8429 87.4099C6.81184 88.3788 8.126 88.9232 9.49629 88.9232C10.8666 88.9232 12.1807 88.3788 13.1497 87.4099C14.1186 86.441 14.663 85.1268 14.663 83.7565C14.663 82.3862 14.1186 81.0721 13.1497 80.1031C12.1807 79.1342 10.8666 78.5898 9.49629 78.5898ZM114.505 78.5898C113.134 78.5898 111.82 79.1342 110.851 80.1031C109.882 81.0721 109.338 82.3862 109.338 83.7565C109.338 85.1268 109.882 86.441 110.851 87.4099C111.82 88.3788 113.134 88.9232 114.505 88.9232C115.875 88.9232 117.189 88.3788 118.158 87.4099C119.127 86.441 119.671 85.1268 119.671 83.7565C119.671 82.3862 119.127 81.0721 118.158 80.1031C117.189 79.1342 115.875 78.5898 114.505 78.5898ZM21.8176 97.0163C20.4473 97.0163 19.1331 97.5606 18.1642 98.5296C17.1953 99.4985 16.6509 100.813 16.6509 102.183C16.6509 103.553 17.1953 104.867 18.1642 105.836C19.1331 106.805 20.4473 107.35 21.8176 107.35C23.1879 107.35 24.502 106.805 25.471 105.836C26.4399 104.867 26.9842 103.553 26.9842 102.183C26.9842 100.813 26.4399 99.4985 25.471 98.5296C24.502 97.5606 23.1879 97.0163 21.8176 97.0163V97.0163ZM102.183 97.0163C100.813 97.0163 99.499 97.5606 98.5301 98.5296C97.5612 99.4985 97.0168 100.813 97.0168 102.183C97.0168 103.553 97.5612 104.867 98.5301 105.836C99.499 106.805 100.813 107.35 102.183 107.35C103.554 107.35 104.868 106.805 105.837 105.836C106.806 104.867 107.35 103.553 107.35 102.183C107.35 100.813 106.806 99.4985 105.837 98.5296C104.868 97.5606 103.554 97.0163 102.183 97.0163ZM40.244 109.338C38.8737 109.338 37.5596 109.882 36.5906 110.851C35.6217 111.82 35.0773 113.134 35.0773 114.504C35.0773 115.875 35.6217 117.189 36.5906 118.158C37.5596 119.127 38.8737 119.671 40.244 119.671C41.6143 119.671 42.9285 119.127 43.8974 118.158C44.8663 117.189 45.4107 115.875 45.4107 114.504C45.4107 113.134 44.8663 111.82 43.8974 110.851C42.9285 109.882 41.6143 109.338 40.244 109.338ZM83.757 109.338C82.3868 109.338 81.0726 109.882 80.1037 110.851C79.1347 111.82 78.5904 113.134 78.5904 114.504C78.5904 115.875 79.1347 117.189 80.1037 118.158C81.0726 119.127 82.3868 119.671 83.757 119.671C85.1273 119.671 86.4415 119.127 87.4104 118.158C88.3794 117.189 88.9237 115.875 88.9237 114.504C88.9237 113.134 88.3794 111.82 87.4104 110.851C86.4415 109.882 85.1273 109.338 83.757 109.338ZM62.0005 113.667C60.6302 113.667 59.3161 114.211 58.3471 115.18C57.3782 116.149 56.8339 117.463 56.8339 118.833C56.8339 120.204 57.3782 121.518 58.3471 122.487C59.3161 123.456 60.6302 124 62.0005 124C63.3708 124 64.685 123.456 65.6539 122.487C66.6228 121.518 67.1672 120.204 67.1672 118.833C67.1672 117.463 66.6228 116.149 65.6539 115.18C64.685 114.211 63.3708 113.667 62.0005 113.667Z" fill="#55589C"/>
</g>
<defs>
<clipPath id="clip0_203_82">
<rect width="124" height="124" fill="white"/>
</clipPath>
</defs>
</svg>
