<svg width="124" height="124" viewBox="0 0 124 124" fill="none" xmlns="http://www.w3.org/2000/svg">
<path d="M123.096 21.971C122.845 21.2351 122.098 20.4896 121.352 20.4896C120.616 20.2379 119.618 20.4896 119.124 21.2351L105.976 34.3639C105.23 35.1094 103.747 35.1094 103.001 34.3639L89.8534 21.2351C89.1073 20.4896 89.1073 18.9986 89.8534 18.2531L103.001 4.87255C103.496 4.37877 103.747 3.38152 103.747 2.64569C103.496 1.90017 103.001 1.15466 102.255 0.902929C92.3338 -2.56323 76.4631 4.62082 70.0103 11.069C63.5671 17.5172 62.821 26.4344 68.024 36.1067L67.5299 36.6005L62.0749 30.8978C57.3661 25.6889 50.9132 22.7165 43.7239 22.4744C36.525 22.2227 30.0818 24.953 25.121 29.9102L7.75827 47.2604C-2.16329 57.1747 -2.16329 73.2856 7.75827 83.2L12.4671 87.9054L5.02597 94.8474C3.03972 96.8322 0.811241 100.298 0.0651865 104.762C-0.186729 108.48 0.0651862 113.679 5.02597 118.888C8.99847 122.857 13.2132 123.845 16.6819 123.845C17.4279 123.845 18.4162 123.845 19.1623 123.593C23.6289 122.857 27.0976 120.621 29.0838 118.636L37.523 109.961C38.0171 109.961 38.5112 110.213 39.2573 110.213C43.2201 110.213 46.9407 108.228 48.9269 105.004C50.1671 105.507 51.6592 105.749 52.8994 105.749C58.6063 105.749 63.3151 101.789 64.3034 96.3287C65.0495 96.5805 65.7955 96.5805 66.5416 96.5805C72.2484 96.5805 76.9573 92.6109 77.9456 87.1599C78.6916 87.4116 79.4377 87.4116 80.1837 87.4116C86.6269 87.4116 91.8396 82.2027 91.8396 75.7642C91.8396 72.2883 90.1053 68.8222 87.373 66.5856L82.4122 61.6284L87.8671 56.1775C97.5465 61.3864 106.228 60.6409 112.923 54.1927C119.376 47.5024 126.565 31.6433 123.096 21.971ZM25.6151 115.17C24.3749 116.409 21.6426 118.142 18.4162 118.636C14.6956 119.14 11.4789 117.9 8.74655 115.17C5.77202 112.198 4.77405 108.973 5.27788 105.507C5.77202 102.283 7.50636 99.8046 8.74655 98.3136L15.9358 91.3716L30.324 105.749C31.0701 106.495 31.8161 107.24 32.8044 107.986L25.6151 115.17ZM84.3985 70.3035C86.1328 71.5428 87.1308 73.5276 87.1308 75.5124C87.1308 79.2303 84.1465 82.2027 80.426 82.2027C79.1858 82.2027 78.1975 81.9607 76.9573 81.2151L72.4906 78.4848L73.2367 83.6937C73.2367 83.9358 73.2367 84.1875 73.2367 84.6813C73.2367 88.3992 70.2622 91.3716 66.5416 91.3716C65.3014 91.3716 64.3034 91.1295 63.0632 90.384L58.6063 87.6537L59.3426 92.8626C59.3426 93.1143 59.3426 93.3564 59.3426 93.8502C59.3426 97.568 56.3681 100.55 52.6475 100.55C51.4073 100.55 49.9249 100.047 48.9269 99.3108L46.2043 97.568L45.2064 100.55C44.2181 103.271 41.7377 105.004 39.0054 105.004C37.0191 105.004 35.0426 104.016 33.8024 102.525L10.975 79.7241C3.03972 71.7946 3.03972 58.6561 10.975 50.7265L28.3378 33.3764C32.3103 29.4067 37.7652 27.1799 43.472 27.4316C49.1789 27.6737 54.3819 29.9102 58.3544 34.3639L64.0612 40.3184L62.5691 41.7997L62.0749 41.0639C61.0867 40.0666 59.5946 40.0666 58.6063 41.0639C57.6083 42.0514 57.6083 43.5425 58.6063 44.53L84.1465 70.0615L84.3985 70.3035ZM109.202 50.4748C102.507 57.1747 94.32 54.4444 88.6132 50.7265C87.6249 50.2327 86.3847 50.2327 85.6386 51.2203L78.9435 57.9106L66.0474 45.0238L72.7426 38.3335C73.4886 37.588 73.7308 36.3487 73.2367 35.3612C69.768 29.4067 67.0357 21.2351 73.4886 14.7869C78.1975 10.0815 88.371 5.12428 96.0544 4.87255L86.3847 14.5352C83.6524 17.2655 83.6524 21.7289 86.3847 24.7013L99.5327 37.8398C102.255 40.5604 106.722 40.5604 109.696 37.8398L119.376 28.1674C119.124 35.6032 113.911 45.7693 109.202 50.4748Z" fill="#55589C"/>
</svg>
