<svg width="124" height="124" viewBox="0 0 124 124" fill="none" xmlns="http://www.w3.org/2000/svg">
<path d="M51.3902 0C41.9453 0 35.8018 3.35212 29.8586 6.59867C23.6515 9.99039 17.7898 13.1973 7.39911 13.1973H3V17.5965C3 72.4138 32.0139 95.2618 44.3534 102.503C43.1084 98.6887 42.3937 94.6405 42.2397 90.4482C30.4193 81.2144 13.0285 61.0508 11.8584 21.8151C21.8664 20.9925 28.3101 17.4727 34.0773 14.3229C39.5014 11.3579 44.1889 8.79823 51.3902 8.79823C58.6048 8.79823 63.317 11.3577 68.7719 14.3315C74.5391 17.4725 80.9713 20.9881 90.9221 21.8151C90.667 30.4374 89.5845 38.0479 88.0008 44.9105C91.0318 45.0381 93.9744 45.4608 96.8162 46.1735C98.6771 37.7888 99.7805 28.3039 99.7805 17.5965V13.1973H95.3814C85.0567 13.1973 79.1935 9.99458 72.982 6.60726C67.0168 3.35632 60.8439 0 51.3902 0ZM81.7458 53.6142V63.2888C77.7866 63.7287 73.8274 65.4884 70.7481 67.6879L64.1494 61.0892L57.9889 67.2497L64.5876 73.4102C62.388 76.9295 61.0683 80.4488 60.1885 84.408H50.9521V93.2062H60.1885C60.6284 97.1654 62.388 101.125 64.5876 104.204L57.9889 110.803L64.1494 116.963L70.7481 110.364C74.2674 112.564 77.7866 113.884 81.7458 114.764V124H90.5441V114.764C94.5033 114.324 98.4625 112.564 101.542 110.364L108.141 116.963L114.301 110.803L107.702 104.204C109.902 100.685 111.222 97.1654 112.101 93.2062H121.338V84.408H112.101C111.662 80.4488 109.902 76.4896 107.702 73.4102L114.301 66.8115L108.141 60.6511L101.542 67.2497C98.0226 65.0502 94.5033 63.7304 90.5441 62.8506V53.6142H81.7458ZM86.145 71.2106C95.823 71.2106 103.741 79.129 103.741 88.8071C103.741 98.4851 95.823 106.404 86.145 106.404C76.4669 106.404 68.5485 98.4851 68.5485 88.8071C68.5485 79.129 76.4669 71.2106 86.145 71.2106ZM86.145 80.0089C81.3059 80.0089 77.3467 83.9681 77.3467 88.8071C77.3467 93.6461 81.3059 97.6053 86.145 97.6053C90.984 97.6053 94.9432 93.6461 94.9432 88.8071C94.9432 83.9681 90.984 80.0089 86.145 80.0089Z" fill="#55589C"/>
</svg>
