<svg width="124" height="124" viewBox="0 0 124 124" fill="none" xmlns="http://www.w3.org/2000/svg">
<path d="M28.9735 0C14.6496 0 3 11.6496 3 25.9735C3 32.795 6.53925 37.7489 9.66158 42.117C12.4134 45.9663 15.0167 49.6045 15.0167 54.0867V56.0895V58.0805C15.0167 62.2803 16.8841 66.047 19.8202 68.6186C19.9664 69.9444 20.1932 71.2861 20.5517 72.6319C22.262 79.0208 25.8553 83.7111 29.6346 84.7386C35.8912 104.45 51.7475 124 70.5976 124C89.4477 124 105.3 104.45 111.557 84.7386C115.336 83.7111 118.929 79.0228 120.64 72.6319C121.613 69.0129 121.812 65.3846 121.207 62.4225C120.5 58.9737 118.77 56.713 116.337 56.0621C115.578 55.8598 114.498 55.7862 113.196 56.2068C113.092 51.4823 112.421 47.4547 111.158 44.022C110.659 42.6701 110.808 42.1952 110.794 42.1952C111.363 41.7426 114.304 42.1407 117.096 43.2983C117.793 43.5867 118.577 43.464 119.145 42.9854C119.718 42.5087 119.978 41.7507 119.818 41.0217C114.755 17.8416 97.5558 4.00555 73.8169 4.00555H70.5976C64.2368 4.00555 55.1771 5.89674 49.0325 9.48972C44.2659 3.69769 37.0427 0 28.9735 0ZM28.9735 4.00555C41.0883 4.00555 50.9454 13.8607 50.9454 25.9735C50.9454 31.5192 48.0999 35.5375 45.0857 39.7934C42.4741 43.4846 39.782 47.2875 39.1751 52.0722H18.8931C18.2803 47.2795 15.5577 43.4767 12.92 39.7856C9.87778 35.5317 7.00555 31.5112 7.00555 25.9735C7.00555 13.8607 16.8607 4.00555 28.9735 4.00555ZM70.5976 8.0111H73.8169C94.6578 8.0111 109.506 19.0433 115.038 38.4322C112.627 37.8714 109.719 37.6743 108.024 39.3006C106.617 40.6524 106.403 42.7069 107.399 45.4067C108.961 49.6446 109.509 55.0108 109.069 61.8122C108.999 62.9158 109.835 63.8681 110.939 63.9402C110.981 63.9422 111.026 63.9441 111.068 63.9441C112.113 63.9441 112.995 63.1319 113.063 62.0704C113.095 61.5737 113.111 61.0979 113.133 60.6153C113.247 60.5692 113.367 60.5485 113.473 60.4784C113.99 60.1419 114.727 59.7725 115.3 59.9307C116.167 60.163 116.905 61.3938 117.279 63.2244C117.758 65.5576 117.574 68.6092 116.775 71.5953C115.141 77.6978 111.802 80.9481 110.019 80.9481H110.016C109.13 80.9481 108.349 81.5306 108.095 82.3798C102.539 101.074 87.8755 119.994 70.5976 119.994C53.3196 119.994 38.656 101.074 33.1003 82.3798C32.846 81.5306 32.0649 80.9481 31.1797 80.9481H31.1758C29.3933 80.9481 26.0546 77.6978 24.4203 71.5953C24.3923 71.4892 24.3779 71.3846 24.3499 71.2785C25.8179 71.8012 27.3918 72.0999 29.0361 72.0999C36.7648 72.0999 43.0555 65.8092 43.0555 58.0805V56.0777V54.075C43.0555 49.5947 45.6301 45.9585 48.3558 42.1092C49.6296 40.3087 50.9636 38.397 52.1032 36.3081L55.3186 37.8728C64.4613 42.327 74.1283 44.5852 84.042 44.5852C85.1495 44.5852 86.0448 43.69 86.0448 42.5825C86.0448 41.4749 85.1495 40.5797 84.042 40.5797C74.7391 40.5797 65.6649 38.4579 57.071 34.2741L53.7618 32.6625C54.4868 30.6336 54.9509 28.4308 54.9509 25.9774C54.9509 21.1587 53.6063 16.6586 51.3091 12.7873C56.242 10.0074 64.1106 8.0111 70.5976 8.0111ZM70.1986 12.0245C69.0951 12.1146 68.2759 13.0763 68.364 14.1798L68.6731 18.0524C68.7572 19.0998 69.6326 19.8948 70.668 19.8948C70.7201 19.8948 70.7743 19.8909 70.8284 19.8869C71.9319 19.7968 72.755 18.8351 72.6669 17.7316L72.3578 13.8591C72.2697 12.7575 71.3081 11.9444 70.1986 12.0245ZM81.4447 12.5604C80.3471 12.3781 79.3228 13.1215 79.1446 14.215L78.5187 18.0406C78.3405 19.1321 79.0819 20.1585 80.1734 20.3368C80.2835 20.3548 80.3899 20.3642 80.498 20.3642C81.4614 20.3642 82.3112 19.6635 82.4734 18.6821L83.0954 14.8604C83.2736 13.7709 82.5362 12.7406 81.4447 12.5604ZM91.4077 16.0496C90.6268 16.0436 89.8849 16.4982 89.5575 17.2583L88.0358 20.7788C87.5932 21.7962 88.0609 22.9748 89.0763 23.4114C89.3347 23.5235 89.606 23.5756 89.8704 23.5756C90.6475 23.5756 91.3863 23.124 91.7128 22.3669L93.2305 18.8464C93.6691 17.831 93.1995 16.6505 92.1861 16.2139C91.9318 16.1037 91.668 16.0516 91.4077 16.0496ZM100.217 22.3435C99.7086 22.4078 99.2263 22.6667 98.8868 23.1023L96.5789 26.0752C95.9 26.9504 96.0558 28.2088 96.931 28.8877C97.2975 29.1721 97.7306 29.3062 98.1592 29.3062C98.7581 29.3062 99.3489 29.0404 99.7435 28.5317L102.051 25.5589C102.73 24.6837 102.571 23.4253 101.695 22.7464C101.258 22.4079 100.725 22.2791 100.217 22.3435ZM21.025 24.0333C20.5128 24.0333 20.0005 24.2285 19.609 24.6201C18.8259 25.4031 18.8259 26.669 19.609 27.4521L23.6145 31.4577C24.005 31.8482 24.5178 32.0444 25.0305 32.0444C25.5432 32.0444 26.056 31.8482 26.4466 31.4577C27.2296 30.6746 27.2296 29.4087 26.4466 28.6256L22.441 24.6201C22.0495 24.2285 21.5372 24.0333 21.025 24.0333ZM37.0472 24.0333C36.535 24.0333 36.0227 24.2285 35.6312 24.6201L27.6201 32.6312C27.2435 33.0057 27.0333 33.5145 27.0333 34.0472V46.0639C27.0333 47.1714 27.9286 48.0666 29.0361 48.0666C30.1436 48.0666 31.0389 47.1714 31.0389 46.0639V34.8765L38.4632 27.4521C39.2463 26.669 39.2463 25.4031 38.4632 24.6201C38.0717 24.2285 37.5594 24.0333 37.0472 24.0333ZM92.6438 40.5797C91.5362 40.5797 90.641 41.4749 90.641 42.5825C90.641 43.69 91.5362 44.5852 92.6438 44.5852H99.098C100.206 44.5852 101.101 43.69 101.101 42.5825C101.101 41.4749 100.206 40.5797 99.098 40.5797H92.6438ZM39.05 56.0777V58.0805C39.05 63.6022 34.5577 68.0944 29.0361 68.0944C23.5144 68.0944 19.0222 63.6022 19.0222 58.0805V56.0895L39.05 56.0777ZM53.0694 60.0833C52.0071 60.0833 50.9882 60.5053 50.237 61.2565C49.4859 62.0077 49.0638 63.0265 49.0638 64.0888C49.0638 65.1512 49.4859 66.17 50.237 66.9212C50.9882 67.6724 52.0071 68.0944 53.0694 68.0944C54.1317 68.0944 55.1506 67.6724 55.9017 66.9212C56.6529 66.17 57.0749 65.1512 57.0749 64.0888C57.0749 63.0265 56.6529 62.0077 55.9017 61.2565C55.1506 60.5053 54.1317 60.0833 53.0694 60.0833ZM91.1221 60.0833C90.0598 60.0833 89.041 60.5053 88.2898 61.2565C87.5386 62.0077 87.1166 63.0265 87.1166 64.0888C87.1166 65.1512 87.5386 66.17 88.2898 66.9212C89.041 67.6724 90.0598 68.0944 91.1221 68.0944C92.1845 68.0944 93.2033 67.6724 93.9545 66.9212C94.7057 66.17 95.1277 65.1512 95.1277 64.0888C95.1277 63.0265 94.7057 62.0077 93.9545 61.2565C93.2033 60.5053 92.1845 60.0833 91.1221 60.0833Z" fill="#55589C"/>
</svg>
