<svg width="139" height="71" viewBox="0 0 139 71" fill="none" xmlns="http://www.w3.org/2000/svg">
<path fill-rule="evenodd" clip-rule="evenodd" d="M37.055 1.41288C36.7781 0.637494 36.0365 0.126376 35.2138 0.143996L32.9673 0.192112C32.1446 0.209732 31.4255 0.752138 31.182 1.53867L29.7917 6.03039C29.7906 6.03396 29.7933 6.03756 29.7971 6.03748C29.8038 6.03733 29.8048 6.04722 29.7982 6.04841C29.1637 6.16242 28.5316 6.29727 27.9027 6.45304C26.6629 6.76014 25.4498 7.14515 24.2697 7.60389C23.6152 7.85827 22.8716 7.76641 22.3197 7.33217L19.6604 5.23978C19.0135 4.73083 18.1138 4.69316 17.4267 5.14627L15.5505 6.38356C14.8634 6.83666 14.5432 7.67886 14.7555 8.47437L15.5424 11.4228C15.7336 12.1393 15.49 12.8977 14.9431 13.3982C13.689 14.5456 12.5287 15.8042 11.4779 17.1638C11.4513 17.1981 11.4249 17.2325 11.3985 17.2669C11.3935 17.2734 11.3834 17.2673 11.3868 17.2599C11.3888 17.2557 11.386 17.2508 11.3814 17.2503L6.71324 16.7266C5.89549 16.6349 5.11082 17.077 4.76526 17.8243L3.82162 19.8649C3.47605 20.6121 3.64713 21.4968 4.24633 22.0612L6.25589 23.9538C6.81912 24.4843 7.00191 25.3004 6.75861 26.0351C6.27608 27.4922 5.90585 28.9867 5.65233 30.5053C5.53367 31.2162 5.05435 31.8204 4.3761 32.0629L1.26853 33.1739C0.49363 33.4509 -0.0171677 34.1931 0.000441346 35.0163L0.0485269 37.2642C0.066136 38.0874 0.6082 38.807 1.39423 39.0506L4.53348 40.0235C5.22298 40.2371 5.72828 40.8223 5.876 41.5293C6.17126 42.9424 6.56827 44.3305 7.06314 45.6829C7.30022 46.3308 7.20209 47.059 6.77478 47.6005L4.63561 50.3114C4.12567 50.9576 4.08621 51.8579 4.53763 52.5463L5.77035 54.4262C6.22177 55.1146 7.06279 55.4367 7.85823 55.2259L11.7973 54.1819C11.8359 54.1717 11.8768 54.1851 11.9019 54.2161C12.9676 55.5315 14.1373 56.7464 15.3957 57.8516C15.9286 58.3196 16.1901 59.0311 16.0519 59.727L15.3627 63.1974C15.2023 64.005 15.5764 64.8247 16.2913 65.2323L18.2437 66.3454C18.9586 66.7531 19.854 66.6572 20.4666 66.1074L22.9589 63.8706C23.5029 63.3823 24.2758 63.2521 24.9634 63.4999C26.1366 63.9227 27.34 64.2732 28.5676 64.5476C29.0811 64.6624 29.5965 64.7633 30.1133 64.8505C30.8224 64.9701 31.4249 65.4494 31.6669 66.1271L32.8255 69.3719C33.1024 70.1473 33.844 70.6584 34.6667 70.6408L36.9132 70.5927C37.7359 70.5751 38.455 70.0327 38.6985 69.2461L39.7132 65.9678C39.9265 65.2788 40.51 64.7736 41.2153 64.625C42.688 64.3147 44.1397 63.8923 45.5574 63.3594C46.2237 63.1089 46.977 63.2155 47.5255 63.6694L50.2328 65.9098C50.867 66.4346 51.7655 66.4944 52.4635 66.0584L54.3697 64.8678C55.0677 64.4318 55.4086 63.5977 55.216 62.7972L54.4267 59.5174C54.2562 58.8091 54.5063 58.0693 55.0469 57.5812C55.9012 56.8101 56.7104 55.99 57.4701 55.1251C57.9385 54.5919 58.6503 54.3308 59.346 54.4701L62.3565 55.073C63.1571 55.2333 63.9712 54.8671 64.3827 54.1614L65.6382 52.0088C65.9665 51.446 65.8931 50.7352 65.4568 50.2514C65.1731 49.9369 64.7695 49.7573 64.3461 49.7573L61.2281 49.7573L60.2919 49.7573L53.9382 49.7573C53.3567 49.7573 52.8104 50.0254 52.4298 50.4652C50.3963 52.8148 47.8935 54.7434 45.0589 56.1136C40.3985 58.3663 35.1143 58.9778 30.063 57.8487C25.0118 56.7197 20.4899 53.9164 17.2305 49.8934C13.9711 45.8705 12.1653 40.8638 12.106 35.6852C12.0468 30.5066 13.7375 25.4598 16.9039 21.3632C20.0704 17.2666 24.527 14.3604 29.5511 13.1159C34.5751 11.8714 39.872 12.3616 44.5827 14.5069C47.8158 15.9794 50.6427 18.1722 52.8616 20.8927C53.2423 21.3595 53.8054 21.6468 54.4076 21.6468L61.5269 21.6468L63.6214 21.6468C64.0448 21.6468 64.4484 21.4672 64.732 21.1527C65.1684 20.6689 65.2418 19.9581 64.9135 19.3952L63.658 17.2427C63.2464 16.537 62.4324 16.1708 61.6317 16.3311L59.6517 16.7276C58.9456 16.869 58.2241 16.598 57.7567 16.0499C56.6665 14.7716 55.4707 13.5881 54.1824 12.512C53.6314 12.0517 53.3527 11.3357 53.4836 10.6296L54.1255 7.16833C54.2756 6.35876 53.8912 5.5439 53.1712 5.14537L51.2049 4.05711C50.4848 3.65858 49.5907 3.76582 48.9851 4.32334L46.4187 6.68624C45.8879 7.17492 45.129 7.31807 44.4443 7.09121C42.9214 6.58661 41.3647 6.2073 39.7898 5.95472C39.074 5.83992 38.464 5.35885 38.22 4.67572L37.055 1.41288Z" fill="#55589C"/>
<path d="M18.8684 38.614C18.797 38.614 18.7363 38.5931 18.6863 38.5514C18.6435 38.5028 18.6221 38.4437 18.6221 38.3742V31.5655C18.6221 31.4891 18.6435 31.43 18.6863 31.3883C18.7363 31.3396 18.797 31.3153 18.8684 31.3153H22.9921C23.0707 31.3153 23.1314 31.3396 23.1742 31.3883C23.2242 31.43 23.2492 31.4891 23.2492 31.5655V31.9826C23.2492 32.0521 23.2242 32.1112 23.1742 32.1599C23.1314 32.2016 23.0707 32.2224 22.9921 32.2224H19.6717V38.3742C19.6717 38.4437 19.6468 38.5028 19.5968 38.5514C19.5468 38.5931 19.4861 38.614 19.4147 38.614H18.8684Z" fill="#55589C"/>
<path d="M24.9034 38.614C24.832 38.614 24.7713 38.5931 24.7213 38.5514C24.6785 38.5028 24.657 38.4437 24.657 38.3742V31.5655C24.657 31.4891 24.6785 31.43 24.7213 31.3883C24.7713 31.3396 24.832 31.3153 24.9034 31.3153H29.327C29.3984 31.3153 29.4555 31.3396 29.4984 31.3883C29.5484 31.43 29.5734 31.4891 29.5734 31.5655V31.9618C29.5734 32.0313 29.5519 32.0904 29.5091 32.139C29.4663 32.1807 29.4056 32.2016 29.327 32.2016H25.6853V34.485H29.0914C29.1628 34.485 29.2199 34.5093 29.2627 34.558C29.3127 34.5997 29.3377 34.6588 29.3377 34.7353V35.121C29.3377 35.1906 29.3127 35.2496 29.2627 35.2983C29.2199 35.34 29.1628 35.3609 29.0914 35.3609H25.6853V37.7277H29.4127C29.4912 37.7277 29.5519 37.7486 29.5948 37.7903C29.6376 37.832 29.659 37.8911 29.659 37.9675V38.3742C29.659 38.4437 29.6341 38.5028 29.5841 38.5514C29.5412 38.5931 29.4841 38.614 29.4127 38.614H24.9034Z" fill="#55589C"/>
<path d="M34.207 38.7182C33.2716 38.7182 32.5468 38.4819 32.0327 38.0092C31.5257 37.5296 31.2579 36.8102 31.2294 35.8509C31.2222 35.6424 31.2187 35.347 31.2187 34.9646C31.2187 34.5823 31.2222 34.2904 31.2294 34.0888C31.2579 33.1504 31.5364 32.4379 32.0648 31.9513C32.5932 31.4578 33.3073 31.211 34.207 31.211C35.0996 31.211 35.8101 31.4578 36.3385 31.9513C36.8669 32.4379 37.1454 33.1504 37.174 34.0888C37.1882 34.492 37.1954 34.7839 37.1954 34.9646C37.1954 35.1384 37.1882 35.4338 37.174 35.8509C37.1454 36.8102 36.8741 37.5296 36.3599 38.0092C35.8529 38.4819 35.1353 38.7182 34.207 38.7182ZM34.207 37.832C34.7711 37.832 35.221 37.6651 35.5566 37.3315C35.8922 36.9978 36.0743 36.4869 36.1029 35.7988C36.1171 35.3817 36.1243 35.1037 36.1243 34.9646C36.1243 34.8117 36.1171 34.5337 36.1029 34.1305C36.0743 33.4423 35.8886 32.9314 35.5459 32.5978C35.2103 32.2641 34.764 32.0973 34.207 32.0973C33.6429 32.0973 33.1895 32.2641 32.8467 32.5978C32.5111 32.9314 32.329 33.4423 32.3005 34.1305C32.2933 34.3321 32.2898 34.6101 32.2898 34.9646C32.2898 35.3122 32.2933 35.5902 32.3005 35.7988C32.329 36.4869 32.5111 36.9978 32.8467 37.3315C33.1895 37.6651 33.6429 37.832 34.207 37.832Z" fill="#55589C"/>
<path d="M41.8842 38.7182C40.9273 38.7182 40.199 38.468 39.6992 37.9675C39.2064 37.467 38.9422 36.7754 38.9065 35.8926C38.8994 35.7049 38.8958 35.3991 38.8958 34.9751C38.8958 34.5441 38.8994 34.2313 38.9065 34.0367C38.9422 33.1608 39.21 32.4727 39.7099 31.9722C40.2097 31.4648 40.9345 31.211 41.8842 31.211C42.5197 31.211 43.0588 31.3223 43.5015 31.5447C43.9443 31.7602 44.2799 32.0452 44.5084 32.3997C44.7369 32.7542 44.8618 33.133 44.8833 33.5362V33.557C44.8833 33.6126 44.8583 33.6613 44.8083 33.703C44.7654 33.7378 44.7155 33.7551 44.6583 33.7551H44.0692C43.9264 33.7551 43.8372 33.6752 43.8015 33.5153C43.6801 32.994 43.4623 32.6291 43.1481 32.4205C42.8339 32.205 42.4126 32.0973 41.8842 32.0973C40.656 32.0973 40.0205 32.7611 39.9776 34.0888C39.9705 34.2765 39.9669 34.565 39.9669 34.9542C39.9669 35.3435 39.9705 35.6389 39.9776 35.8405C40.0205 37.1681 40.656 37.832 41.8842 37.832C42.4126 37.832 42.8339 37.7277 43.1481 37.5192C43.4694 37.3037 43.6872 36.9353 43.8015 36.4139C43.8229 36.3236 43.855 36.261 43.8979 36.2263C43.9407 36.1915 43.9978 36.1741 44.0692 36.1741H44.6583C44.7226 36.1741 44.7762 36.195 44.819 36.2367C44.869 36.2714 44.8904 36.3201 44.8833 36.3827C44.8618 36.7928 44.7369 37.1751 44.5084 37.5296C44.2799 37.8841 43.9443 38.1726 43.5015 38.395C43.0588 38.6105 42.5197 38.7182 41.8842 38.7182Z" fill="#55589C"/>
<path d="M48.6323 38.614C48.5609 38.614 48.5002 38.5931 48.4502 38.5514C48.4073 38.5028 48.3859 38.4437 48.3859 38.3742V32.2433H46.3294C46.258 32.2433 46.1973 32.2224 46.1473 32.1807C46.1045 32.1321 46.0831 32.073 46.0831 32.0035V31.5655C46.0831 31.496 46.1045 31.437 46.1473 31.3883C46.1973 31.3396 46.258 31.3153 46.3294 31.3153H51.4921C51.5706 31.3153 51.6313 31.3396 51.6742 31.3883C51.7242 31.43 51.7492 31.4891 51.7492 31.5655V32.0035C51.7492 32.073 51.7242 32.1321 51.6742 32.1807C51.6242 32.2224 51.5635 32.2433 51.4921 32.2433H49.4463V38.3742C49.4463 38.4437 49.4213 38.5028 49.3713 38.5514C49.3213 38.5931 49.2606 38.614 49.1892 38.614H48.6323Z" fill="#55589C"/>
<path d="M53.6247 38.614C53.5533 38.614 53.4926 38.5931 53.4426 38.5514C53.3997 38.5028 53.3783 38.4437 53.3783 38.3742V31.5655C53.3783 31.4891 53.3997 31.43 53.4426 31.3883C53.4926 31.3396 53.5533 31.3153 53.6247 31.3153H56.3452C57.1521 31.3153 57.7877 31.5065 58.2518 31.8888C58.7159 32.2711 58.948 32.8237 58.948 33.5466C58.948 34.2695 58.7159 34.8221 58.2518 35.2045C57.7948 35.5798 57.1593 35.7675 56.3452 35.7675H54.4494V38.3742C54.4494 38.4437 54.4244 38.5028 54.3744 38.5514C54.3244 38.5931 54.2637 38.614 54.1923 38.614H53.6247ZM56.2917 34.8917C56.813 34.8917 57.2057 34.777 57.4699 34.5476C57.7412 34.3182 57.8769 33.9845 57.8769 33.5466C57.8769 33.1087 57.7448 32.775 57.4806 32.5457C57.2164 32.3093 56.8201 32.1911 56.2917 32.1911H54.4387V34.8917H56.2917Z" fill="#55589C"/>
<path d="M63.3781 38.7182C62.4427 38.7182 61.7179 38.4819 61.2038 38.0092C60.6968 37.5296 60.429 36.8102 60.4004 35.8509C60.3933 35.6424 60.3897 35.347 60.3897 34.9646C60.3897 34.5823 60.3933 34.2904 60.4004 34.0888C60.429 33.1504 60.7075 32.4379 61.2359 31.9513C61.7643 31.4578 62.4784 31.211 63.3781 31.211C64.2707 31.211 64.9812 31.4578 65.5096 31.9513C66.038 32.4379 66.3165 33.1504 66.345 34.0888C66.3593 34.492 66.3664 34.7839 66.3664 34.9646C66.3664 35.1384 66.3593 35.4338 66.345 35.8509C66.3165 36.8102 66.0451 37.5296 65.531 38.0092C65.024 38.4819 64.3064 38.7182 63.3781 38.7182ZM63.3781 37.832C63.9422 37.832 64.3921 37.6651 64.7277 37.3315C65.0633 36.9978 65.2454 36.4869 65.2739 35.7988C65.2882 35.3817 65.2953 35.1037 65.2953 34.9646C65.2953 34.8117 65.2882 34.5337 65.2739 34.1305C65.2454 33.4423 65.0597 32.9314 64.7169 32.5978C64.3813 32.2641 63.9351 32.0973 63.3781 32.0973C62.814 32.0973 62.3605 32.2641 62.0178 32.5978C61.6822 32.9314 61.5001 33.4423 61.4715 34.1305C61.4644 34.3321 61.4608 34.6101 61.4608 34.9646C61.4608 35.3122 61.4644 35.5902 61.4715 35.7988C61.5001 36.4869 61.6822 36.9978 62.0178 37.3315C62.3605 37.6651 62.814 37.832 63.3781 37.832Z" fill="#55589C"/>
<path d="M68.6024 38.614C68.531 38.614 68.4703 38.5931 68.4203 38.5514C68.3775 38.5028 68.3561 38.4402 68.3561 38.3637V31.5655C68.3561 31.4891 68.3775 31.43 68.4203 31.3883C68.4703 31.3396 68.531 31.3153 68.6024 31.3153H69.1594C69.2308 31.3153 69.2879 31.3396 69.3308 31.3883C69.3808 31.437 69.4058 31.496 69.4058 31.5655V36.9561L73.4009 31.4613C73.4581 31.364 73.5473 31.3153 73.6687 31.3153H74.1936C74.265 31.3153 74.3221 31.3396 74.3649 31.3883C74.4149 31.43 74.4399 31.4891 74.4399 31.5655V38.3742C74.4399 38.4437 74.4149 38.5028 74.3649 38.5514C74.3221 38.5931 74.265 38.614 74.1936 38.614H73.6473C73.5759 38.614 73.5152 38.5931 73.4652 38.5514C73.4152 38.5028 73.3902 38.4437 73.3902 38.3742V33.0253L69.4058 38.468C69.3486 38.5653 69.2594 38.614 69.138 38.614H68.6024ZM71.3659 30.8982C70.7732 30.8982 70.3483 30.7766 70.0913 30.5333C69.8342 30.29 69.7057 29.9807 69.7057 29.6053C69.7057 29.5497 69.7235 29.5045 69.7592 29.4698C69.7949 29.4281 69.8449 29.4072 69.9092 29.4072H70.2841C70.3483 29.4072 70.3983 29.4281 70.434 29.4698C70.4697 29.5045 70.4876 29.5497 70.4876 29.6053C70.4876 30.0363 70.7803 30.2518 71.3659 30.2518C71.9514 30.2518 72.2442 30.0363 72.2442 29.6053C72.2442 29.5497 72.262 29.5045 72.2977 29.4698C72.3334 29.4281 72.3834 29.4072 72.4477 29.4072H72.8226C72.8868 29.4072 72.9368 29.4281 72.9725 29.4698C73.0082 29.5045 73.0261 29.5497 73.0261 29.6053C73.0261 29.9807 72.8975 30.29 72.6405 30.5333C72.3834 30.7766 71.9585 30.8982 71.3659 30.8982Z" fill="#55589C"/>
<path d="M79.8415 35.9239C79.7701 35.9239 79.7094 35.903 79.6594 35.8613C79.6166 35.8127 79.5951 35.7536 79.5951 35.6841V35.2879C79.5951 35.2184 79.6166 35.1627 79.6594 35.121C79.7094 35.0724 79.7701 35.0481 79.8415 35.0481H83.0548C83.1262 35.0481 83.1833 35.0724 83.2262 35.121C83.2761 35.1627 83.3011 35.2184 83.3011 35.2879V35.6841C83.3011 35.7536 83.2761 35.8127 83.2262 35.8613C83.1833 35.903 83.1262 35.9239 83.0548 35.9239H79.8415Z" fill="#55589C"/>
<path d="M88.7047 38.614C88.6333 38.614 88.5726 38.5931 88.5227 38.5514C88.4798 38.5028 88.4584 38.4437 88.4584 38.3742V31.5655C88.4584 31.4891 88.4798 31.43 88.5227 31.3883C88.5726 31.3396 88.6333 31.3153 88.7047 31.3153H93.364C93.4426 31.3153 93.5033 31.3396 93.5461 31.3883C93.5961 31.43 93.6211 31.4891 93.6211 31.5655V31.9826C93.6211 32.0521 93.5961 32.1112 93.5461 32.1599C93.5033 32.2016 93.4426 32.2224 93.364 32.2224H89.5081V34.3286H91.6288C92.3857 34.3286 92.9748 34.5198 93.3961 34.9021C93.8174 35.2774 94.0281 35.7918 94.0281 36.4452C94.0281 36.8067 93.9353 37.1542 93.7496 37.4879C93.5711 37.8146 93.2997 38.0857 92.9356 38.3012C92.5785 38.5097 92.143 38.614 91.6288 38.614H88.7047ZM91.5003 37.7694C91.943 37.7694 92.2965 37.6408 92.5607 37.3836C92.8249 37.1195 92.957 36.7963 92.957 36.4139C92.957 36.0316 92.832 35.7293 92.5821 35.5068C92.3393 35.2774 91.9787 35.1627 91.5003 35.1627H89.5081V37.7694H91.5003Z" fill="#55589C"/>
<path d="M100.901 31.3153C100.958 31.3153 101.008 31.3362 101.051 31.3779C101.094 31.4196 101.115 31.4682 101.115 31.5238C101.115 31.5794 101.104 31.6281 101.083 31.6698L98.8978 36.4869C98.6479 37.0361 98.423 37.4566 98.223 37.7486C98.0302 38.0336 97.8017 38.249 97.5375 38.395C97.2733 38.541 96.9306 38.614 96.5093 38.614H96.0808C96.0094 38.614 95.9487 38.5931 95.8987 38.5514C95.8559 38.5028 95.8345 38.4437 95.8345 38.3742V37.9362C95.8345 37.8667 95.8559 37.8076 95.8987 37.759C95.9487 37.7103 96.0094 37.686 96.0808 37.686H96.4557C96.7413 37.686 96.977 37.6026 97.1626 37.4358C97.3554 37.262 97.5518 36.9735 97.7517 36.5703L94.9776 31.649C94.9562 31.6073 94.9455 31.569 94.9455 31.5343C94.9455 31.4787 94.9669 31.43 95.0097 31.3883C95.0597 31.3396 95.1133 31.3153 95.1704 31.3153H95.7809C95.888 31.3153 95.9737 31.3744 96.038 31.4926L98.2659 35.4443L100.055 31.4926C100.076 31.437 100.112 31.3952 100.162 31.3674C100.212 31.3327 100.265 31.3153 100.322 31.3153H100.901Z" fill="#55589C"/>
<path d="M102.72 38.614C102.649 38.614 102.588 38.5931 102.538 38.5514C102.495 38.5028 102.474 38.4437 102.474 38.3742V31.5655C102.474 31.4891 102.495 31.43 102.538 31.3883C102.588 31.3396 102.649 31.3153 102.72 31.3153H103.256C103.37 31.3153 103.463 31.3709 103.534 31.4821L105.794 35.6945L108.076 31.4821C108.09 31.4404 108.119 31.4022 108.161 31.3674C108.211 31.3327 108.272 31.3153 108.343 31.3153H108.868C108.947 31.3153 109.008 31.3396 109.05 31.3883C109.1 31.43 109.125 31.4891 109.125 31.5655V38.3742C109.125 38.4437 109.1 38.5028 109.05 38.5514C109 38.5931 108.94 38.614 108.868 38.614H108.343C108.272 38.614 108.211 38.5931 108.161 38.5514C108.119 38.5028 108.097 38.4437 108.097 38.3742V33.2442L106.308 36.6433C106.237 36.7893 106.123 36.8623 105.966 36.8623H105.634C105.476 36.8623 105.362 36.7893 105.291 36.6433L103.491 33.2442V38.3742C103.491 38.4437 103.466 38.5028 103.416 38.5514C103.374 38.5931 103.316 38.614 103.245 38.614H102.72Z" fill="#55589C"/>
<path d="M111.653 38.614C111.581 38.614 111.52 38.5931 111.47 38.5514C111.428 38.5028 111.406 38.4437 111.406 38.3742V31.5655C111.406 31.4891 111.428 31.43 111.47 31.3883C111.52 31.3396 111.581 31.3153 111.653 31.3153H112.188C112.302 31.3153 112.395 31.3709 112.467 31.4821L114.727 35.6945L117.008 31.4821C117.022 31.4404 117.051 31.4022 117.094 31.3674C117.144 31.3327 117.204 31.3153 117.276 31.3153H117.801C117.879 31.3153 117.94 31.3396 117.983 31.3883C118.033 31.43 118.058 31.4891 118.058 31.5655V38.3742C118.058 38.4437 118.033 38.5028 117.983 38.5514C117.933 38.5931 117.872 38.614 117.801 38.614H117.276C117.204 38.614 117.144 38.5931 117.094 38.5514C117.051 38.5028 117.029 38.4437 117.029 38.3742V33.2442L115.241 36.6433C115.169 36.7893 115.055 36.8623 114.898 36.8623H114.566C114.409 36.8623 114.295 36.7893 114.223 36.6433L112.424 33.2442V38.3742C112.424 38.4437 112.399 38.5028 112.349 38.5514C112.306 38.5931 112.249 38.614 112.177 38.614H111.653Z" fill="#55589C"/>
<path d="M119.835 38.614C119.778 38.614 119.728 38.5931 119.685 38.5514C119.642 38.5097 119.621 38.4611 119.621 38.4054C119.621 38.3498 119.624 38.3116 119.632 38.2907L122.288 31.5447C122.345 31.3918 122.459 31.3153 122.631 31.3153H123.359C123.53 31.3153 123.645 31.3918 123.702 31.5447L126.347 38.2907L126.369 38.4054C126.369 38.4611 126.347 38.5097 126.305 38.5514C126.262 38.5931 126.212 38.614 126.155 38.614H125.608C125.53 38.614 125.469 38.5966 125.426 38.5618C125.383 38.5201 125.355 38.4784 125.341 38.4367L124.751 36.9561H121.238L120.649 38.4367C120.635 38.4784 120.603 38.5201 120.553 38.5618C120.51 38.5966 120.453 38.614 120.381 38.614H119.835ZM124.441 36.0594L122.995 32.358L121.549 36.0594H124.441Z" fill="#55589C"/>
<path d="M128.189 38.614C128.117 38.614 128.057 38.5931 128.007 38.5514C127.964 38.5028 127.943 38.4437 127.943 38.3742V31.5551C127.943 31.4787 127.964 31.4196 128.007 31.3779C128.057 31.3362 128.117 31.3153 128.189 31.3153H128.735C128.807 31.3153 128.867 31.3396 128.917 31.3883C128.967 31.43 128.992 31.4856 128.992 31.5551V37.6756H131.616V31.5551C131.616 31.4856 131.638 31.43 131.681 31.3883C131.731 31.3396 131.791 31.3153 131.863 31.3153H132.409C132.48 31.3153 132.541 31.3396 132.591 31.3883C132.641 31.43 132.666 31.4856 132.666 31.5551V37.6756H135.29V31.5551C135.29 31.4856 135.312 31.43 135.354 31.3883C135.404 31.3396 135.465 31.3153 135.537 31.3153H136.083C136.161 31.3153 136.222 31.3396 136.265 31.3883C136.315 31.43 136.34 31.4856 136.34 31.5551V38.3742C136.34 38.4437 136.315 38.5028 136.265 38.5514C136.222 38.5931 136.161 38.614 136.083 38.614H128.189Z" fill="#55589C"/>
<path d="M51.4792 20.9344C49.5586 18.7549 47.2192 16.9659 44.5869 15.6816C40.7938 13.8311 36.5508 13.1062 32.3594 13.5924C28.1679 14.0787 24.203 15.7559 20.9332 18.4258C17.722 21.0479 15.3129 24.5198 13.9788 28.4442C13.9384 28.5629 14.0033 28.6914 14.1223 28.7306C14.1452 28.7381 14.1691 28.742 14.1932 28.742H16.8284C18.5693 28.742 20.1049 27.6867 21.0781 26.2416C21.9868 24.8924 23.0922 23.6766 24.3646 22.6376C26.8313 20.6235 29.8223 19.3582 32.9843 18.9914C36.1463 18.6245 39.3471 19.1714 42.2086 20.5674C44.3273 21.6011 46.1964 23.0918 47.6978 24.8999C48.6803 26.0831 50.0727 26.9138 51.6097 26.9162L139 27.0569L54.9078 22.6937C53.574 22.6245 52.3628 21.9371 51.4792 20.9344Z" fill="#C4C4C4"/>
<path d="M51.4792 20.9344C49.5586 18.7549 47.2192 16.9659 44.5869 15.6816C40.7938 13.8311 36.5508 13.1062 32.3594 13.5924C28.1679 14.0787 24.203 15.7559 20.9332 18.4258C17.722 21.0479 15.3129 24.5198 13.9788 28.4442C13.9384 28.5629 14.0033 28.6914 14.1223 28.7306C14.1452 28.7381 14.1691 28.742 14.1932 28.742H16.8284C18.5693 28.742 20.1049 27.6867 21.0781 26.2416C21.9868 24.8924 23.0922 23.6766 24.3646 22.6376C26.8313 20.6235 29.8223 19.3582 32.9843 18.9914C36.1463 18.6245 39.3471 19.1714 42.2086 20.5674C44.3273 21.6011 46.1964 23.0918 47.6978 24.8999C48.6803 26.0831 50.0727 26.9138 51.6097 26.9162L139 27.0569L54.9078 22.6937C53.574 22.6245 52.3628 21.9371 51.4792 20.9344Z" fill="url(#paint0_linear_411_2)" fill-opacity="0.7"/>
<path d="M51.4792 20.9344C49.5586 18.7549 47.2192 16.9659 44.5869 15.6816C40.7938 13.8311 36.5508 13.1062 32.3594 13.5924C28.1679 14.0787 24.203 15.7559 20.9332 18.4258C17.722 21.0479 15.3129 24.5198 13.9788 28.4442C13.9384 28.5629 14.0033 28.6914 14.1223 28.7306C14.1452 28.7381 14.1691 28.742 14.1932 28.742H16.8284C18.5693 28.742 20.1049 27.6867 21.0781 26.2416C21.9868 24.8924 23.0922 23.6766 24.3646 22.6376C26.8313 20.6235 29.8223 19.3582 32.9843 18.9914C36.1463 18.6245 39.3471 19.1714 42.2086 20.5674C44.3273 21.6011 46.1964 23.0918 47.6978 24.8999C48.6803 26.0831 50.0727 26.9138 51.6097 26.9162L139 27.0569L54.9078 22.6937C53.574 22.6245 52.3628 21.9371 51.4792 20.9344Z" fill="url(#paint1_linear_411_2)" fill-opacity="0.2"/>
<path d="M51.4792 49.8508C49.5586 52.0302 47.2192 53.8193 44.5869 55.1035C40.7938 56.9541 36.5508 57.679 32.3594 57.1927C28.1679 56.7064 24.203 55.0293 20.9332 52.3593C17.722 49.7373 15.3129 46.2654 13.9788 42.341C13.9384 42.2222 14.0033 42.0937 14.1223 42.0545C14.1452 42.047 14.1691 42.0432 14.1932 42.0432H16.8284C18.5693 42.0432 20.1049 43.0985 21.0781 44.5435C21.9868 45.8928 23.0922 47.1086 24.3646 48.1475C26.8313 50.1617 29.8223 51.4269 32.9843 51.7938C36.1463 52.1606 39.3471 51.6137 42.2086 50.2177C44.3273 49.1841 46.1964 47.6934 47.6978 45.8853C48.6803 44.7021 50.0727 43.8714 51.6097 43.8689L139 43.7282L54.9078 48.0915C53.574 48.1607 52.3628 48.8481 51.4792 49.8508Z" fill="#C4C4C4"/>
<path d="M51.4792 49.8508C49.5586 52.0302 47.2192 53.8193 44.5869 55.1035C40.7938 56.9541 36.5508 57.679 32.3594 57.1927C28.1679 56.7064 24.203 55.0293 20.9332 52.3593C17.722 49.7373 15.3129 46.2654 13.9788 42.341C13.9384 42.2222 14.0033 42.0937 14.1223 42.0545C14.1452 42.047 14.1691 42.0432 14.1932 42.0432H16.8284C18.5693 42.0432 20.1049 43.0985 21.0781 44.5435C21.9868 45.8928 23.0922 47.1086 24.3646 48.1475C26.8313 50.1617 29.8223 51.4269 32.9843 51.7938C36.1463 52.1606 39.3471 51.6137 42.2086 50.2177C44.3273 49.1841 46.1964 47.6934 47.6978 45.8853C48.6803 44.7021 50.0727 43.8714 51.6097 43.8689L139 43.7282L54.9078 48.0915C53.574 48.1607 52.3628 48.8481 51.4792 49.8508Z" fill="url(#paint2_linear_411_2)" fill-opacity="0.7"/>
<path d="M51.4792 49.8508C49.5586 52.0302 47.2192 53.8193 44.5869 55.1035C40.7938 56.9541 36.5508 57.679 32.3594 57.1927C28.1679 56.7064 24.203 55.0293 20.9332 52.3593C17.722 49.7373 15.3129 46.2654 13.9788 42.341C13.9384 42.2222 14.0033 42.0937 14.1223 42.0545C14.1452 42.047 14.1691 42.0432 14.1932 42.0432H16.8284C18.5693 42.0432 20.1049 43.0985 21.0781 44.5435C21.9868 45.8928 23.0922 47.1086 24.3646 48.1475C26.8313 50.1617 29.8223 51.4269 32.9843 51.7938C36.1463 52.1606 39.3471 51.6137 42.2086 50.2177C44.3273 49.1841 46.1964 47.6934 47.6978 45.8853C48.6803 44.7021 50.0727 43.8714 51.6097 43.8689L139 43.7282L54.9078 48.0915C53.574 48.1607 52.3628 48.8481 51.4792 49.8508Z" fill="url(#paint3_linear_411_2)" fill-opacity="0.2"/>
<defs>
<linearGradient id="paint0_linear_411_2" x1="125.294" y1="28.742" x2="13.9434" y2="28.742" gradientUnits="userSpaceOnUse">
<stop stop-color="white"/>
<stop offset="1" stop-color="white" stop-opacity="0"/>
</linearGradient>
<linearGradient id="paint1_linear_411_2" x1="13.9434" y1="30.5693" x2="57.2256" y2="30.5693" gradientUnits="userSpaceOnUse">
<stop/>
<stop offset="1" stop-opacity="0"/>
</linearGradient>
<linearGradient id="paint2_linear_411_2" x1="125.294" y1="42.0432" x2="13.9434" y2="42.0432" gradientUnits="userSpaceOnUse">
<stop stop-color="white"/>
<stop offset="1" stop-color="white" stop-opacity="0"/>
</linearGradient>
<linearGradient id="paint3_linear_411_2" x1="13.9434" y1="40.2159" x2="57.2256" y2="40.2159" gradientUnits="userSpaceOnUse">
<stop/>
<stop offset="1" stop-opacity="0"/>
</linearGradient>
</defs>
</svg>
