<svg width="98" height="100" viewBox="0 0 98 100" fill="none" xmlns="http://www.w3.org/2000/svg">
<g clip-path="url(#clip0_220_2)">
<path d="M48.6195 0.379883L93.981 28.0582L48.6195 55.7364L3.25781 28.0582L48.6195 0.379883Z" stroke="#1B1918" stroke-width="0.5669"/>
<path fill-rule="evenodd" clip-rule="evenodd" d="M48.6195 0.379883L93.981 28.0582L80.8665 36.1963L80.8669 36.1962C80.6461 38.7479 80.3035 41.4968 80.3554 43.606C81.5938 47.6517 83.5203 47.6783 82.7115 52.2278C82.1995 55.1066 80.9029 56.9918 79.7574 59.0683C77.9977 56.2147 75.1229 53.6761 75.6344 50.1806C76.4027 44.9308 80.2103 47.0237 77.1918 38.4385L48.6195 55.7364L3.25781 28.0582L48.6195 0.379883ZM48.6195 2.27097L6.35719 28.0582L48.6195 53.8453L90.8816 28.0582L48.6195 2.27097Z" fill="#1B1918"/>
<path fill-rule="evenodd" clip-rule="evenodd" d="M48.6197 0.379883L81.5362 20.4645L48.6197 40.5493L15.7031 20.4645L48.6197 0.379883Z" fill="#1B1918"/>
<path fill-rule="evenodd" clip-rule="evenodd" d="M15.9858 28.2591L16.0629 26.0158L16.5402 26.311L16.8845 25.7541L15.2408 24.7373L14.8964 25.2941L15.3074 25.5484L15.2793 28.601L15.0948 28.7067C14.7809 28.8883 14.5717 28.8414 14.4325 28.7553C14.2998 28.6732 14.1538 28.5096 14.0764 28.3976L13.625 28.8606C13.7604 29.0268 13.9489 29.2259 14.1146 29.3284C14.7442 29.7179 15.2102 29.5571 15.8963 29.1294L18.4954 27.5205L18.9129 27.7788L19.2574 27.222L17.6336 26.2175L17.2891 26.7742L17.8393 27.1145L15.9858 28.2591ZM21.612 33.0592L21.0817 32.7312L22.6972 30.1198L23.234 30.4519L23.5784 29.8951L21.9149 28.866L21.5704 29.4228L22.1007 29.7508L21.4159 30.8576C21.1455 30.7911 20.7864 30.6606 20.561 30.5212C20.0507 30.2056 20.2055 29.9255 20.2876 29.793L20.8083 28.9512L21.3452 29.2834L21.6895 28.7266L20.026 27.6974L19.6815 28.2542L20.2117 28.5822L19.6704 29.4571C19.4409 29.8282 19.1429 30.4137 20.0641 30.9836C20.3492 31.16 20.7291 31.3308 21.0715 31.4143L20.4852 32.3621L19.9549 32.0342L19.6106 32.5909L21.2676 33.6159L21.612 33.0592ZM26.4482 33.1366L25.8915 32.7923L25.6127 33.243L24.8637 32.7796L25.4541 31.8252L27.0249 32.797L26.5614 33.6648L27.1314 34.0174L27.9527 32.601L24.6718 30.5714L24.3273 31.1282L24.8576 31.4563L23.2421 34.0676L22.7119 33.7396L22.3675 34.2963L25.7146 36.367L26.5797 34.9684L26.023 34.6239L25.4624 35.4411L23.8387 34.4366L24.5193 33.3364L25.2683 33.7998L24.9895 34.2503L25.5462 34.5948L26.4482 33.1366ZM27.0201 37.1744L28.9155 38.3471C30.0953 39.0768 30.702 38.5999 31.026 38.0762C31.3375 37.5726 31.443 36.7946 30.3097 36.0936L29.5408 35.618L30.1066 34.7033L31.4521 35.5357L31.0064 36.3596L31.5764 36.7123L32.3797 35.3397L29.3242 33.4495L28.9799 34.0063L29.5101 34.3344L27.8946 36.9457L27.3644 36.6177L27.0201 37.1744ZM29.1964 36.1746L29.8525 36.5806C30.1906 36.7897 30.754 37.1382 30.4014 37.7082C30.0939 38.2052 29.6046 38.0035 29.1671 37.7329L28.4912 37.3147L29.1964 36.1746ZM36.522 38.672L36.986 38.9591L37.3304 38.4022L35.7928 37.451L35.4483 38.0078L35.9255 38.303L35.3352 39.2574L33.8771 38.3554L34.4674 37.4009L34.9446 37.6962L35.289 37.1394L33.7514 36.1882L33.407 36.745L33.8709 37.0319L32.2554 39.6433L31.7916 39.3563L31.4471 39.9131L32.9848 40.8643L33.3292 40.3076L32.852 40.0124L33.5326 38.9122L34.9908 39.8142L34.3102 40.9144L33.8329 40.6193L33.4885 41.176L35.0261 42.1272L35.3706 41.5704L34.9066 41.2834L36.522 38.672ZM39.5242 40.5291L39.8686 39.9725L38.1786 38.9269L37.834 39.4837L38.2649 39.7502L36.6494 42.3615L36.2186 42.095L35.8742 42.6518L37.2263 43.4882C37.3391 43.5579 38.3043 44.1458 38.993 43.0324C39.5793 42.0845 39.0711 41.5135 38.6203 41.2347L38.2956 41.0338L38.8614 40.1192L39.5242 40.5291ZM37.246 42.7305L37.9512 41.5905L38.1634 41.7218C38.3621 41.8447 38.7129 42.1075 38.3807 42.6444C38.0567 43.1679 37.6967 43.0093 37.4779 42.874L37.246 42.7305ZM40.5911 40.4194L40.2467 40.9762L40.6775 41.2426L39.0621 43.854L38.6312 43.5876L38.2869 44.1443L39.7449 45.0462L40.0892 44.4895L39.6585 44.2231L41.274 41.6115L41.7048 41.8781L42.0492 41.3213L40.5911 40.4194ZM40.8246 44.9444L40.4803 45.5011L41.8192 46.3294L44.9841 44.1908L43.4958 46.5968L42.9655 46.2688L42.6212 46.8255L44.2781 47.8506L44.6225 47.2938L44.0923 46.9658L45.7078 44.3543L46.2379 44.6824L46.5824 44.1257L45.2436 43.2974L42.0786 45.4359L43.5669 43.03L44.0971 43.3581L44.4415 42.8013L42.7846 41.7762L42.4402 42.333L42.9703 42.6611L41.3549 45.2724L40.8246 44.9444ZM46.1226 42.2467C46.0145 42.4364 45.7518 42.787 45.0492 42.3523C44.3467 41.9178 44.543 41.5261 44.6646 41.3446L44.1342 41.0165C43.7182 41.6298 43.9469 42.3121 44.7621 42.8164C45.5774 43.3206 46.29 43.2207 46.6529 42.5746L46.1226 42.2467Z" fill="#1B1918"/>
<path fill-rule="evenodd" clip-rule="evenodd" d="M55.0198 42.5565L55.5526 42.2325L57.1477 44.8565L56.6149 45.1804L56.955 45.7397L60.0051 43.8855L60.4909 44.6846L61.0902 44.3203L60.2644 42.9618L59.7251 43.2896L58.1299 40.6659L58.6626 40.3419L58.3225 39.7826L56.6576 40.7946L56.9978 41.354L57.5306 41.0302L59.1256 43.6541L57.7471 44.4921L56.1519 41.8683L56.6848 41.5443L56.3446 40.9849L54.6797 41.9971L55.0198 42.5565ZM62.4595 38.7268L61.9002 39.0669L62.1755 39.5198L61.4229 39.9772L60.8399 39.0183L62.4183 38.0587L62.9817 38.8654L63.5544 38.5173L62.6642 37.143L59.3677 39.1471L59.7078 39.7065L60.2406 39.3827L61.8358 42.0064L61.303 42.3304L61.643 42.8898L65.0062 40.8453L64.1519 39.4401L63.5925 39.7802L64.0667 40.6503L62.4351 41.6421L61.763 40.5367L62.5156 40.0792L62.7908 40.5319L63.3502 40.1918L62.4595 38.7268ZM67.366 35.0508L67.8322 34.7675L67.492 34.208L65.9471 35.1474L66.2871 35.7068L66.7666 35.4153L67.3496 36.3742L65.8845 37.2649L65.3015 36.3059L65.7811 36.0144L65.4409 35.455L63.896 36.3942L64.2361 36.9537L64.7022 36.6703L66.2972 39.2941L65.8312 39.5776L66.1713 40.1369L67.7162 39.1977L67.3762 38.6383L66.8967 38.9298L66.2246 37.8243L67.6897 36.9336L68.3618 38.0391L67.8823 38.3307L68.2223 38.89L69.7673 37.9508L69.4272 37.3914L68.9611 37.6749L67.366 35.0508ZM71.4984 36.8983L73.6296 35.6027L73.2895 35.0435L72.5237 35.509L70.9285 32.8852L71.7276 32.3993L72.5618 33.5614L73.1167 33.1237L71.9471 31.4998L68.6305 33.516L69.5338 35.3018L70.1778 35.0107L69.5302 33.7353L70.3292 33.2495L71.9243 35.8733L71.1585 36.3389L71.4984 36.8983ZM75.7399 33.5537L75.2072 33.8777L75.5472 34.437L77.6183 33.1779L77.2782 32.6185L76.3392 33.1894L75.8535 32.3902L76.546 31.9692C77.6915 31.2728 77.5742 30.4047 77.2746 29.9119C76.8616 29.2327 75.9424 29.0709 75.2031 29.5203L73.272 30.6943L73.612 31.2538L74.1448 30.9299L75.7399 33.5537ZM74.7442 30.5656L75.5233 30.0918C75.9962 29.8044 76.4284 29.9155 76.6431 30.2685C76.9993 30.8545 76.4058 31.2883 76.0728 31.4907L75.5134 31.8308L74.7442 30.5656Z" fill="#1B1918"/>
<path fill-rule="evenodd" clip-rule="evenodd" d="M71.9189 44.297C72.5449 46.4501 72.8817 48.7262 72.8817 51.0812C72.8817 64.4803 62.0196 75.3424 48.6205 75.3424C35.2214 75.3424 24.3594 64.4803 24.3594 51.0812C24.3594 48.7262 24.6961 46.45 25.3221 44.2969L48.6207 58.513L71.9189 44.297Z" fill="#1B1918"/>
<path fill-rule="evenodd" clip-rule="evenodd" d="M96.6284 43.6133C96.8338 44.8924 96.9891 46.1807 97.0919 47.4757C97.1943 48.7653 97.2467 50.0662 97.2467 51.3761C97.2467 52.2841 97.22 53.1981 97.168 54.1163C97.1156 55.0448 97.0374 55.9623 96.9353 56.8683L96.8938 57.2373L95.8376 57.2054C95.3571 57.191 94.9097 57.3403 94.5539 57.6095C94.1991 57.8778 93.9343 58.2674 93.8176 58.7337L92.551 63.7947L93.5166 64.5568C94.0005 64.9387 94.3318 65.4403 94.4902 65.9915C94.6487 66.5432 94.6346 67.1436 94.4277 67.7227C93.7905 69.5079 93.0494 71.249 92.2121 72.9384C91.3688 74.6392 90.4283 76.2849 89.3977 77.8678C88.9792 78.5106 88.3407 78.9276 87.6438 79.0828C86.9474 79.2379 86.1924 79.1312 85.5411 78.727L85.5416 78.7263L84.5337 78.1007H84.5325C84.1247 77.8477 83.6634 77.7528 83.2208 77.8071C82.7784 77.8615 82.3538 78.0655 82.0193 78.4102L79.2956 81.2161C79.0124 81.5079 78.8304 81.8565 78.7567 82.2262C78.683 82.5964 78.7175 82.9883 78.8671 83.366L79.9284 86.0438C80.1599 86.6281 80.191 87.2412 80.0417 87.8069C79.8922 88.3734 79.5625 88.8918 79.0733 89.2852C77.8195 90.2932 76.5125 91.2415 75.1576 92.1251C73.8095 93.0043 72.416 93.8179 70.9825 94.5613C70.3251 94.9022 69.5928 94.9608 68.9279 94.7763C68.2624 94.5916 67.6645 94.1629 67.2761 93.5305L66.3835 92.0771C66.1324 91.6683 65.7633 91.3769 65.3444 91.2277C64.9237 91.0778 64.4522 91.0698 63.9987 91.2281L60.3063 92.516C59.9222 92.65 59.6031 92.8802 59.3717 93.1775C59.1409 93.4741 58.9966 93.8399 58.9611 94.2461L58.7339 96.8412C58.677 97.4928 58.4083 98.0765 57.9918 98.524C57.5761 98.9706 57.0129 99.2799 56.3659 99.3836C55.0893 99.5881 53.8034 99.7429 52.5112 99.8455C51.2258 99.9476 49.929 99.9998 48.6234 99.9998C48.0414 99.9998 47.4374 99.9879 46.8127 99.9646C46.1886 99.9413 45.583 99.9075 44.9963 99.8638C44.2766 99.8102 43.6369 99.4927 43.1701 99.0081C42.704 98.5243 42.4112 97.873 42.3845 97.1508L42.3095 95.1274C42.2918 94.6476 42.1129 94.2116 41.8205 93.8748C41.5285 93.5385 41.1223 93.3004 40.6495 93.2153L36.8008 92.5227C36.3999 92.4507 36.0085 92.4944 35.6602 92.64C35.3139 92.7847 35.0087 93.0322 34.7782 93.3682L33.449 95.3072C33.0679 95.863 32.5262 96.2454 31.9236 96.4242C31.3226 96.6027 30.6615 96.5778 30.0397 96.3204C28.2309 95.5713 26.4809 94.7186 24.7978 93.7703C23.097 92.812 21.4584 91.7529 19.8901 90.6016C19.2703 90.1467 18.8894 89.4837 18.7747 88.7778C18.6601 88.0718 18.8109 87.3225 19.2543 86.6954L20.1007 85.498C20.3786 85.1048 20.5012 84.6498 20.4735 84.2054V84.2043C20.4457 83.7599 20.2675 83.3243 19.9437 82.97L17.3056 80.0834C17.0305 79.7825 16.6936 79.5796 16.3299 79.4843C15.9661 79.389 15.572 79.4006 15.1829 79.5285L12.1303 80.5319C11.534 80.7277 10.9202 80.7218 10.364 80.5387C9.80795 80.3556 9.31074 79.9955 8.94686 79.483C7.9172 78.0324 6.96428 76.5211 6.09449 74.956C5.23076 73.4017 4.4506 71.7979 3.76047 70.1512C3.50259 69.5358 3.47287 68.881 3.64384 68.283C3.8148 67.6846 4.18657 67.1441 4.73159 66.7577L6.43492 65.5494C6.82728 65.2712 7.09396 64.8832 7.21529 64.455C7.33674 64.0259 7.31338 63.5549 7.1255 63.1127L5.596 59.5138C5.43658 59.1388 5.18603 58.8356 4.87464 58.6248C4.56188 58.4132 4.18712 58.2928 3.78081 58.2843L2.9459 58.2668C2.22225 58.2514 1.56588 57.9685 1.07495 57.5096C0.583217 57.0499 0.256269 56.4133 0.192344 55.6922H0.191192C0.12944 54.9946 0.0817558 54.2752 0.04905 53.5343C0.016573 52.8006 0 52.0809 0 51.3765C0 50.1616 0.0451563 48.9518 0.134011 47.7493C0.223551 46.5361 0.357473 45.3368 0.533809 44.1532C0.641876 43.4281 1.01594 42.8055 1.54597 42.3749C2.07613 41.9445 2.76191 41.7062 3.49356 41.7493L3.87267 41.7715C4.33443 41.7987 4.76899 41.6749 5.12441 41.4349C5.47994 41.195 5.75735 40.8385 5.90464 40.4008L7.14002 36.7299C7.28113 36.3105 7.5005 35.9483 7.78913 35.6523C8.07856 35.3558 8.43556 35.1274 8.85113 34.9762C9.2659 34.8252 9.68536 34.7706 10.0972 34.8118C10.5096 34.8529 10.9108 34.9892 11.2877 35.2192L16.0206 38.107C16.5874 38.4529 16.9944 38.9624 17.2073 39.5431C17.4207 40.1244 17.4398 40.7759 17.2315 41.4053C16.7034 43 16.2985 44.6424 16.0282 46.3216C15.7638 47.9641 15.6264 49.6522 15.6264 51.3765C15.6264 60.4858 19.4847 68.7336 25.7228 74.7044C31.9645 80.6784 40.5898 84.3737 50.1192 84.3737C59.6486 84.3737 68.274 80.6784 74.5156 74.7044C80.7536 68.7336 84.612 60.4858 84.612 51.3765C84.612 49.402 84.4317 47.4727 84.0862 45.6028C83.7323 43.686 83.2033 41.8226 82.5162 40.0287C82.2709 39.3882 82.2693 38.7124 82.4758 38.1067C82.6825 37.5008 83.097 36.966 83.6833 36.6083L86.1019 35.1326C86.4788 34.9026 86.8799 34.7663 87.2925 34.7251C87.7043 34.6841 88.1238 34.7386 88.5385 34.8895C88.9541 35.0408 89.311 35.2694 89.6004 35.5658C89.8892 35.8616 90.1084 36.2239 90.2495 36.6433L91.3416 39.8883C91.4888 40.326 91.7663 40.6825 92.1217 40.9224C92.4772 41.1623 92.9118 41.2861 93.3736 41.259L93.6751 41.2412C94.4013 41.1986 95.0824 41.4323 95.6107 41.8565C96.1386 42.2801 96.5138 42.8947 96.6292 43.6137L96.6284 43.6133ZM96.2879 47.5388C96.1856 46.2499 96.0334 44.9827 95.8338 43.7393C95.7514 43.2259 95.483 42.7867 95.1055 42.4836C94.7285 42.181 94.2416 42.0143 93.7217 42.0448L93.42 42.0627C92.7759 42.1005 92.1684 41.9268 91.6701 41.5906C91.172 41.2545 90.7837 40.7556 90.5777 40.1433L89.4856 36.8983C89.3839 36.5961 89.2274 36.3366 89.0226 36.1268C88.8184 35.9176 88.5632 35.7551 88.2634 35.646C87.9626 35.5365 87.6621 35.4967 87.3705 35.5257C87.0799 35.5547 86.7936 35.653 86.5205 35.8196L84.1019 37.2954C83.6818 37.5516 83.3853 37.9333 83.2381 38.365C83.0908 38.797 83.0925 39.2809 83.269 39.7415C83.9707 41.5738 84.5124 43.4845 84.8767 45.4574C85.2326 47.3838 85.4184 49.3616 85.4184 51.3761C85.4184 60.7133 81.4649 69.1661 75.0729 75.2842C68.6846 81.3986 59.8617 85.1805 50.1184 85.1805C40.375 85.1805 31.5522 81.3986 25.164 75.2842C18.772 69.1661 14.8184 60.7133 14.8184 51.3761C14.8184 49.6196 14.9601 47.8892 15.2329 46.1951C15.5117 44.4631 15.926 42.7788 16.4645 41.1526C16.6143 40.6999 16.6015 40.2339 16.4497 39.8203C16.2979 39.4059 16.0065 39.042 15.6004 38.794L10.8676 35.9062C10.5945 35.7396 10.3082 35.6412 10.0176 35.6123C9.72597 35.5832 9.42542 35.6238 9.12467 35.7326C8.82471 35.8418 8.56947 36.0041 8.36534 36.2133C8.16042 36.4233 8.004 36.6827 7.90234 36.9849L6.66693 40.6558C6.46097 41.2681 6.07252 41.7671 5.5745 42.1032C5.07625 42.4394 4.46867 42.613 3.82451 42.5752L3.44544 42.5529C2.92134 42.522 2.43097 42.692 2.05291 42.9989C1.67497 43.3059 1.40795 43.7508 1.33065 44.2696C1.15683 45.4365 1.02496 46.6161 0.937133 47.8058C0.850566 48.9792 0.806438 50.17 0.806438 51.3761C0.806438 52.1062 0.821868 52.8139 0.852172 53.4993C0.882934 54.1935 0.930504 54.9017 0.994314 55.6224L0.99318 55.6225C1.03881 56.137 1.27233 56.5914 1.62352 56.9196C1.97551 57.2488 2.44515 57.4516 2.96181 57.4624L3.79662 57.48C4.36463 57.492 4.88835 57.6602 5.32553 57.9559C5.76386 58.2526 6.11516 58.6764 6.33689 59.1982L7.86643 62.7971C8.12865 63.414 8.16088 64.0718 7.99095 64.6723C7.82056 65.2738 7.44809 65.8173 6.90159 66.205L5.19826 67.4132C4.80773 67.6901 4.54151 68.0764 4.41949 68.5033C4.29747 68.9305 4.3192 69.3997 4.50458 69.8419C5.18522 71.4663 5.95163 73.0426 6.79752 74.5646C7.65141 76.1011 8.58859 77.587 9.60281 79.016C9.86366 79.3835 10.2193 79.6416 10.6162 79.7722C11.0126 79.9025 11.4523 79.9061 11.8811 79.7653L14.9338 78.762C15.4705 78.5856 16.0196 78.571 16.5317 78.7052C17.0439 78.8395 17.516 79.1224 17.8984 79.5408L20.5365 82.4274C20.9888 82.9222 21.238 83.532 21.2774 84.155C21.3165 84.7787 21.146 85.4149 20.7596 85.9616L19.9132 87.159C19.5958 87.6083 19.4875 88.1443 19.5694 88.6487C19.6514 89.1534 19.9234 89.6272 20.3663 89.9522C21.9058 91.0824 23.5169 92.1235 25.1919 93.0673C26.8551 94.0044 28.5757 94.8436 30.3457 95.5764C30.7924 95.7613 31.2666 95.7796 31.6966 95.6519C32.1246 95.5248 32.5108 95.2514 32.7837 94.8532L34.113 92.9142C34.4337 92.4464 34.8622 92.1004 35.3512 91.8961C35.8382 91.6924 36.3845 91.6311 36.9427 91.7315L40.7914 92.424C41.4513 92.5427 42.0196 92.8766 42.4292 93.3483C42.8384 93.8196 43.0887 94.4289 43.1135 95.0991L43.1885 97.1226C43.2075 97.6385 43.417 98.1041 43.7502 98.4501C44.0828 98.7953 44.5402 99.0216 45.0562 99.06C45.6639 99.1052 46.2593 99.139 46.8412 99.1607C47.4085 99.1819 48.0026 99.1928 48.6234 99.1928C49.9139 99.1928 51.1895 99.1416 52.448 99.0417C53.7342 98.9396 54.999 98.788 56.2397 98.5891C56.7031 98.5149 57.1056 98.2942 57.4023 97.9756C57.698 97.6579 57.8891 97.2403 57.93 96.7719L58.1571 94.1768C58.2065 93.6121 58.4096 93.1006 58.7348 92.6826C59.0595 92.2654 59.5056 91.9431 60.0414 91.7562L63.7337 90.4683C64.3668 90.2475 65.025 90.2587 65.6123 90.4679C66.2015 90.6777 66.7198 91.0859 67.0709 91.6577L67.9635 93.1112C68.2408 93.5629 68.6676 93.8688 69.1423 94.0006C69.6175 94.1325 70.142 94.0903 70.6137 93.8456C72.0259 93.1133 73.3961 92.3133 74.7193 91.4504C76.0482 90.5838 77.333 89.6514 78.5687 88.6578C78.9202 88.3752 79.1565 88.0049 79.263 87.602C79.3696 87.1979 79.347 86.7591 79.1811 86.3403L78.1198 83.6626C77.9105 83.1342 77.8624 82.5861 77.9654 82.0685C78.0686 81.5504 78.3231 81.0624 78.7187 80.6549L81.4424 77.8489C81.9095 77.3676 82.5035 77.0826 83.1232 77.0064C83.7428 76.9302 84.3882 77.063 84.9583 77.4167L84.9578 77.4175L85.9656 78.0429H85.9668C86.4329 78.3322 86.9727 78.4087 87.4704 78.2979C87.9677 78.1872 88.4239 77.889 88.723 77.4296C89.735 75.8752 90.6597 74.2568 91.4899 72.5822C92.3097 70.9282 93.0382 69.2156 93.6678 67.4517C93.8166 67.0351 93.8273 66.6052 93.7145 66.2123C93.6015 65.8189 93.3645 65.4606 93.0184 65.1874L91.6431 64.102L93.0356 58.5383C93.1983 57.8882 93.5696 57.3437 94.0682 56.9664C94.5657 56.5901 95.1899 56.3814 95.8598 56.4016L96.1746 56.4108C96.2564 55.6335 96.32 54.8536 96.364 54.0721C96.4138 53.1913 96.4395 52.2925 96.4395 51.3759C96.4395 50.081 96.3882 48.8013 96.2879 47.5386V47.5388Z" fill="#1B1918"/>
<path d="M16.8443 41.2788C15.7894 44.4644 15.2188 47.8562 15.2188 51.376C15.2188 69.8228 30.8424 84.7769 50.1151 84.7769C69.3878 84.7769 85.0115 69.8228 85.0115 51.376C85.0115 47.3378 84.2612 43.4678 82.8889 39.8848" stroke="#1B1918" stroke-width="0.5669"/>
<path fill-rule="evenodd" clip-rule="evenodd" d="M11.0591 55.2505C9.6188 55.5299 8.9132 56.6657 9.13334 57.8005C9.35347 58.9355 10.4325 59.7253 11.8727 59.446C13.3286 59.1637 14.0327 58.02 13.814 56.8928C13.5955 55.7657 12.515 54.9682 11.0591 55.2505V55.2505ZM11.2048 56.0021C12.2144 55.8062 13.0139 56.2845 13.1566 57.0204C13.2993 57.7562 12.7367 58.4987 11.7271 58.6946C10.7329 58.8874 9.93351 58.4089 9.79079 57.6732C9.64808 56.9374 10.2107 56.1948 11.2048 56.0021ZM12.1362 60.4394C10.7269 60.847 10.1261 62.0415 10.4472 63.1522C10.7683 64.2627 11.9139 64.9524 13.3232 64.5449C14.7479 64.1329 15.3464 62.9307 15.0275 61.8277C14.7085 60.7247 13.5609 60.0275 12.1362 60.4394ZM12.3488 61.1747C13.3369 60.8891 14.176 61.2938 14.3841 62.0138C14.5922 62.7338 14.0987 63.5238 13.1107 63.8096C12.138 64.0908 11.2987 63.6861 11.0906 62.9661C10.8824 62.246 11.376 61.4561 12.3488 61.1747ZM13.7748 65.3573C12.4364 65.9579 12.0086 67.2247 12.4819 68.2795C12.9552 69.3343 14.186 69.8569 15.5245 69.2563C16.8775 68.6491 17.302 67.375 16.8319 66.3275C16.3619 65.28 15.1279 64.7501 13.7748 65.3573ZM14.0882 66.0557C15.0267 65.6345 15.9141 65.9179 16.2209 66.6017C16.5277 67.2856 16.1496 68.1368 15.211 68.5579C14.2873 68.9724 13.3997 68.6892 13.0928 68.0053C12.786 67.3216 13.1644 66.4702 14.0882 66.0557ZM19.9673 73.0673L20.6924 72.238L21.4206 71.6549L21.919 72.2772L21.1908 72.8603L20.2348 73.4012L19.9673 73.0673ZM20.7724 74.0724L21.4999 73.2461L22.228 72.663L22.7264 73.2854L21.9984 73.8685L21.0348 74.4001L20.7724 74.0724ZM21.1851 78.9413L20.4758 78.2298L22.7009 76.0122L23.9786 77.2941L23.312 78.0484L23.7961 78.5341L24.9482 77.3182L22.2184 74.5794L21.7441 75.0522L22.1944 75.5039L19.9693 77.7216L19.519 77.2699L19.0446 77.7426L20.7106 79.4142L21.1851 78.9413ZM27.142 80.6517L26.6045 80.2519L26.2809 80.6871L25.5581 80.1492L26.2433 79.2281L27.7594 80.3559L27.2111 81.2L27.7614 81.6092L28.722 80.2372L25.5553 77.8818L25.1556 78.4191L25.6674 78.7997L23.7925 81.3205L23.2808 80.9399L22.8811 81.4771L26.1119 83.8802L27.1159 82.5303L26.5786 82.1306L25.9358 82.9146L24.3684 81.7487L25.1583 80.6866L25.8812 81.2244L25.5577 81.6594L26.0952 82.0592L27.142 80.6517ZM28.3537 82.7515C27.6392 84.0328 28.0529 85.3043 29.0626 85.8674C30.0723 86.4305 31.3716 86.1143 32.0862 84.833C32.8084 83.5377 32.3876 82.2624 31.3849 81.7032C30.3822 81.144 29.0761 81.4563 28.3537 82.7515ZM29.0222 83.1243C29.5231 82.226 30.4041 81.9231 31.0587 82.288C31.7134 82.6532 31.9185 83.5619 31.4176 84.4602C30.9244 85.3445 30.0434 85.6475 29.3889 85.2824C28.7342 84.9174 28.529 84.0086 29.0222 83.1243ZM35.9847 87.7441C35.1217 87.9544 34.6236 87.8009 34.3745 87.6937C33.4151 87.2811 33.3608 86.3377 33.7263 85.4882C34.2146 84.3527 35.1725 84.3048 35.7658 84.56C36.198 84.746 36.5762 85.2385 36.4248 85.7721L36.3061 86.1897L37.0251 86.3342C37.0421 86.0724 37.1137 85.7647 37.2083 85.545C37.2808 85.3765 37.4643 85.0909 37.6268 84.8744L37.0537 84.4718L36.9099 84.7049C36.6017 84.2512 36.2575 84.0425 35.9792 83.9228C34.7486 83.3935 33.5335 83.9991 33.0168 85.2003C32.4088 86.6139 33.0332 87.8459 34.1174 88.3122C34.7471 88.5831 35.5083 88.5894 36.1723 88.3976L35.9847 87.7441ZM38.0675 89.5249L40.5318 90.1863L40.7054 89.5394L39.8197 89.3018L40.6342 86.2676L41.5582 86.5157L41.2878 87.9539L42.0036 88.0552L42.3786 86.0426L38.5438 85.0132L37.8607 86.9432L38.531 87.2139L39.017 85.8336L39.941 86.0817L39.1267 89.1157L38.2411 88.8781L38.0675 89.5249ZM43.4905 90.0836L42.857 90.0101L42.7798 90.6755L45.2429 90.9611L45.3201 90.2958L44.2034 90.1663L44.3136 89.2159L45.1372 89.3114C46.4996 89.4693 46.9506 88.6949 47.0185 88.1088C47.1122 87.301 46.472 86.5927 45.5928 86.4907L43.296 86.2244L43.2188 86.8896L43.8525 86.9631L43.4905 90.0836ZM44.5653 87.0458L45.4919 87.1532C46.0544 87.2185 46.3334 87.5799 46.2848 87.9997C46.204 88.6966 45.4521 88.6736 45.0561 88.6278L44.3907 88.5506L44.5653 87.0458ZM47.975 89.0957C48.0223 90.562 49.0319 91.4389 50.1873 91.4015C51.3429 91.3642 52.2937 90.424 52.2464 88.9577C52.1985 87.4754 51.181 86.599 50.0334 86.6361C48.8859 86.6731 47.9271 87.6135 47.975 89.0957V89.0957ZM48.74 89.071C48.7069 88.0431 49.3059 87.3296 50.055 87.3054C50.8042 87.2812 51.4481 87.9545 51.4814 88.9824C51.5141 89.9945 50.9149 90.7079 50.1657 90.7322C49.4167 90.7563 48.7727 90.0831 48.74 89.071ZM53.3178 90.4792L53.3949 91.1444L54.9948 90.959L56.1762 87.234L56.5097 90.1091L55.876 90.1826L55.9531 90.8478L57.9332 90.6182L57.856 89.953L57.2225 90.0264L56.8606 86.9058L57.4941 86.8323L57.417 86.1671L55.8172 86.3527L54.6358 90.0776L54.3024 87.2025L54.9361 87.1291L54.8589 86.4638L52.8788 86.6935L52.9559 87.3587L53.5895 87.2851L53.9514 90.4057L53.3178 90.4792ZM55.8554 84.9515C55.889 85.1724 55.9009 85.6206 55.0613 85.7179C54.2218 85.8153 54.1306 85.3763 54.1129 85.1536L53.4793 85.2271C53.5348 85.9832 54.1515 86.3853 55.1257 86.2723C56.0998 86.1593 56.6079 85.6269 56.4889 84.8781L55.8554 84.9515ZM58.9735 87.8901L59.1596 88.5831L62.0857 87.7977L61.8996 87.1047L58.9735 87.8901ZM64.4668 88.8907L66.5571 87.9793C67.8579 87.412 67.8101 86.624 67.5583 86.0465C67.3162 85.4911 66.7233 84.9493 65.4735 85.4943L64.6258 85.8639L64.186 84.8554L65.6696 84.2085L66.1032 85.0632L66.7317 84.7891L66.045 83.3141L62.6758 84.7833L62.9435 85.3973L63.5282 85.1422L64.7839 88.022L64.1991 88.2769L64.4668 88.8907ZM64.8935 86.478L65.617 86.1625C65.9897 86 66.611 85.729 66.8851 86.3576C67.1241 86.9057 66.6694 87.1997 66.1871 87.41L65.4417 87.735L64.8935 86.478ZM70.4701 84.0155L68.5244 82.7958L69.0305 82.5249L68.7146 81.9344L66.9711 82.8674L67.2871 83.4579L67.7229 83.2246L70.4102 84.8161L70.4091 85.0336C70.4086 85.4047 70.2596 85.5657 70.112 85.6447C69.9714 85.72 69.7515 85.7654 69.6128 85.7763L69.7909 86.4134C70.0075 86.379 70.2804 86.3143 70.4561 86.2203C71.124 85.8629 71.2209 85.368 71.1945 84.5411L71.1044 81.4153L71.5473 81.1783L71.2313 80.5878L69.509 81.5094L69.8249 82.0998L70.4084 81.7877L70.4701 84.0155ZM71.5876 81.0673L72.0294 80.7261L73.9497 83.2125L73.5078 83.5536L73.9172 84.0836L75.4948 82.8653L75.0854 82.3353L74.5176 82.7738L72.8751 80.6471L72.8877 80.638L74.9972 81.9606L75.338 81.6975L74.5915 79.3222L74.6041 79.3119L76.2465 81.4386L75.6786 81.8773L76.088 82.4073L77.6656 81.1889L77.2562 80.6589L76.8145 81L74.8944 78.5137L75.336 78.1725L74.9267 77.6425L73.7403 78.5587L74.4853 80.9451L72.3647 79.6212L71.1784 80.5373L71.5876 81.0673ZM75.5569 78.0051L75.9509 77.6097L78.1759 79.8274L77.7818 80.2228L78.2562 80.6955L79.6633 79.2838L79.189 78.8109L78.6825 79.3192L76.7794 77.4223L76.7908 77.4109L79.0533 78.4502L79.3572 78.1453L78.3106 75.8862L78.3221 75.8747L80.2252 77.7716L79.7186 78.2798L80.1929 78.7526L81.6001 77.3409L81.1257 76.868L80.7317 77.2633L78.5068 75.0456L78.9008 74.6503L78.4263 74.1775L77.3682 75.2391L78.4149 77.5094L76.1413 76.4702L75.0829 77.5318L75.5569 78.0051ZM81.8369 76.0192L81.5686 76.3761L82.1038 76.7786L83.2397 75.2684L82.7044 74.8659L82.2828 75.4265L81.912 74.7787L82.9855 73.3512L83.7108 73.5277L83.2891 74.0885L83.8244 74.491L84.9698 72.9681L84.4345 72.5656L84.1661 72.9224L80.1522 71.9187L78.9924 73.4608L79.5276 73.8633L80.1315 73.0604L81.8369 76.0192ZM80.7665 72.7997L82.2825 73.1717L81.5493 74.1467L80.7665 72.7997ZM84.0573 66.8388L84.2437 66.4864L83.6517 66.1732L83.018 67.3713L83.6099 67.6845L83.7218 67.473L86.4986 68.942L86.1258 69.6468L83.3489 68.1779L83.4609 67.9664L82.8688 67.6532L82.3095 68.7104L82.9015 69.0236L83.0134 68.8122L85.7903 70.2811L85.4174 70.9858L82.6406 69.5169L82.7524 69.3055L82.1604 68.9923L81.5267 70.1904L82.1187 70.5037L82.3049 70.1512L85.0819 71.6202L84.8955 71.9726L85.4875 72.2857L87.6126 68.2685L87.0205 67.9553L86.8343 68.3078L84.0573 66.8388ZM84.7747 65.6337L83.6956 65.4122L82.8292 65.0666L83.1245 64.3261L83.991 64.6716L84.9332 65.2363L84.7747 65.6337ZM85.2518 64.4378L84.1742 64.2125L83.3078 63.8668L83.6031 63.1262L84.4696 63.4718L85.4073 64.0477L85.2518 64.4378Z" fill="#1B1918"/>
</g>
<defs>
<clipPath id="clip0_220_2">
<rect width="97.2467" height="100" fill="white"/>
</clipPath>
</defs>
</svg>
