<svg width="29" height="30" viewBox="0 0 29 30" fill="none" xmlns="http://www.w3.org/2000/svg">
<path d="M11.4396 0.919922C5.43707 0.919922 0.55957 5.79742 0.55957 11.7999C0.55957 17.8024 5.43707 22.6799 11.4396 22.6799C13.8146 22.6799 16.0096 21.9149 17.7996 20.6199L26.2196 29.0199L28.0196 27.2199L19.6996 18.8799C21.3346 16.9749 22.3196 14.5024 22.3196 11.7999C22.3196 5.79742 17.4421 0.919922 11.4396 0.919922ZM11.4396 2.19992C16.7496 2.19992 21.0396 6.48992 21.0396 11.7999C21.0396 17.1099 16.7496 21.3999 11.4396 21.3999C6.12957 21.3999 1.83957 17.1099 1.83957 11.7999C1.83957 6.48992 6.12957 2.19992 11.4396 2.19992Z" fill="#55589C"/>
</svg>
